<svg width="24" height="24" viewBox="0 0 24 24" fill="none" xmlns="http://www.w3.org/2000/svg">
<path fill-rule="evenodd" clip-rule="evenodd" d="M1 6.375C1 5.47989 1.34768 4.62145 1.96655 3.98851C2.58542 3.35558 3.42479 3 4.3 3H19.7C20.5752 3 21.4146 3.35558 22.0335 3.98851C22.6523 4.62145 23 5.47989 23 6.375V7.78125H1V6.375ZM1 9.46875H23V17.625C23 18.5201 22.6523 19.3786 22.0335 20.0115C21.4146 20.6444 20.5752 21 19.7 21H4.3C3.42479 21 2.58542 20.6444 1.96655 20.0115C1.34768 19.3786 1 18.5201 1 17.625V9.46875ZM4.3 13.4062C4.0812 13.4062 3.87135 13.4951 3.71664 13.6534C3.56192 13.8116 3.475 14.0262 3.475 14.25C3.475 14.4738 3.56192 14.6884 3.71664 14.8466C3.87135 15.0049 4.0812 15.0938 4.3 15.0938H8.7C8.9188 15.0938 9.12864 15.0049 9.28336 14.8466C9.43808 14.6884 9.525 14.4738 9.525 14.25C9.525 14.0262 9.43808 13.8116 9.28336 13.6534C9.12864 13.4951 8.9188 13.4062 8.7 13.4062H4.3Z" fill="#FECB00"/>
</svg>
