<svg width="26" height="26" viewBox="0 0 26 26" fill="none" xmlns="http://www.w3.org/2000/svg">
<g clip-path="url(#clip0_158_434)">
<path d="M18.1708 0.0130114C18.1155 -0.0487386 16.1249 0.0373864 14.3926 1.91751C12.6604 3.79601 12.9269 5.95076 12.9659 6.00601C13.0049 6.06126 15.4359 6.14739 16.9878 3.96176C18.5396 1.77614 18.226 0.0763864 18.1708 0.0130114ZM23.556 19.0791C23.478 18.9231 19.7779 17.0739 20.1224 13.5184C20.4669 9.96289 22.8443 8.98626 22.8816 8.88064C22.919 8.77501 21.9115 7.59689 20.8439 7.00051C20.0598 6.58045 19.1924 6.33958 18.304 6.29526C18.1285 6.29039 17.5191 6.14089 16.2663 6.48376C15.4408 6.70964 13.5801 7.44089 13.0683 7.47014C12.5548 7.49939 11.0273 6.62189 9.38438 6.38951C8.333 6.18639 7.21825 6.60239 6.42038 6.92251C5.62413 7.24101 4.10963 8.14776 3.05013 10.5576C1.99063 12.9659 2.54475 16.7814 2.94125 17.9676C3.33775 19.1539 3.95688 21.0941 5.00988 22.5111C5.94588 24.1101 7.18738 25.22 7.70575 25.597C8.22413 25.974 9.68663 26.2243 10.7006 25.7059C11.5164 25.2054 12.9886 24.9178 13.5704 24.9389C14.1505 24.96 15.2945 25.1891 16.4661 25.8148C17.394 26.1349 18.2715 26.0016 19.1506 25.6441C20.0298 25.285 21.3021 23.9233 22.7874 21.1624C23.3507 19.8786 23.6069 19.1842 23.556 19.0791Z" fill="black"/>
<path d="M18.1708 0.0130114C18.1155 -0.0487386 16.1249 0.0373864 14.3926 1.91751C12.6604 3.79601 12.9269 5.95076 12.9659 6.00601C13.0049 6.06126 15.4359 6.14739 16.9878 3.96176C18.5396 1.77614 18.226 0.0763864 18.1708 0.0130114ZM23.556 19.0791C23.478 18.9231 19.7779 17.0739 20.1224 13.5184C20.4669 9.96289 22.8443 8.98626 22.8816 8.88064C22.919 8.77501 21.9115 7.59689 20.8439 7.00051C20.0598 6.58045 19.1924 6.33958 18.304 6.29526C18.1285 6.29039 17.5191 6.14089 16.2663 6.48376C15.4408 6.70964 13.5801 7.44089 13.0683 7.47014C12.5548 7.49939 11.0273 6.62189 9.38438 6.38951C8.333 6.18639 7.21825 6.60239 6.42038 6.92251C5.62413 7.24101 4.10963 8.14776 3.05013 10.5576C1.99063 12.9659 2.54475 16.7814 2.94125 17.9676C3.33775 19.1539 3.95688 21.0941 5.00988 22.5111C5.94588 24.1101 7.18738 25.22 7.70575 25.597C8.22413 25.974 9.68663 26.2243 10.7006 25.7059C11.5164 25.2054 12.9886 24.9178 13.5704 24.9389C14.1505 24.96 15.2945 25.1891 16.4661 25.8148C17.394 26.1349 18.2715 26.0016 19.1506 25.6441C20.0298 25.285 21.3021 23.9233 22.7874 21.1624C23.3507 19.8786 23.6069 19.1842 23.556 19.0791Z" fill="black"/>
</g>
<defs>
<clipPath id="clip0_158_434">
<rect width="26" height="26" fill="white"/>
</clipPath>
</defs>
</svg>
