<svg width="19" height="23" viewBox="0 0 19 23" fill="none" xmlns="http://www.w3.org/2000/svg">
<path d="M13.5029 10.2974L6.68007 3.47455C6.55284 3.34732 6.40179 3.2464 6.23556 3.17754C6.06932 3.10868 5.89115 3.07324 5.71122 3.07324C5.34784 3.07324 4.99933 3.2176 4.74238 3.47455C4.61515 3.60178 4.51423 3.75282 4.44537 3.91906C4.37651 4.08529 4.34107 4.26346 4.34107 4.44339C4.34107 4.80678 4.48543 5.15528 4.74238 5.41224L10.61 11.2662L4.74238 17.1202C4.61448 17.2471 4.51297 17.398 4.44369 17.5643C4.37441 17.7306 4.33875 17.9089 4.33875 18.0891C4.33875 18.2692 4.37441 18.4476 4.44369 18.6138C4.51297 18.7801 4.61448 18.931 4.74238 19.0579C4.86924 19.1858 5.02016 19.2873 5.18644 19.3566C5.35273 19.4259 5.53109 19.4615 5.71122 19.4615C5.89136 19.4615 6.06972 19.4259 6.236 19.3566C6.40229 19.2873 6.55321 19.1858 6.68007 19.0579L13.5029 12.2351C13.6308 12.1082 13.7323 11.9573 13.8016 11.791C13.8709 11.6247 13.9065 11.4464 13.9065 11.2662C13.9065 11.0861 13.8709 10.9077 13.8016 10.7414C13.7323 10.5752 13.6308 10.4242 13.5029 10.2974Z" fill="#FECB00"/>
</svg>
