<svg width="348" height="96" viewBox="0 0 348 96" fill="none" xmlns="http://www.w3.org/2000/svg">
<g clip-path="url(#clip0_344_8575)">
<path d="M25.2861 10.2852H28.6071V85.6601H25.2861V10.2852ZM18.5359 10.2852H20.1961V85.6601H18.5359V10.2852ZM37.071 10.2852H38.732V85.6601H37.071V10.2852ZM33.696 10.2852H35.3569V85.6601H33.696V10.2852ZM5.03617 10.2852H6.75042V85.6601H5.03617V10.2852ZM10.1247 10.2852H11.7855V85.6601H10.1247V10.2852ZM0 10.2852H3.37502V85.714H0V10.2852ZM40.4464 10.2852H42.1074V85.6601H40.4464V10.2852ZM74.0895 10.2852H77.4643V85.6601H74.0895V10.2852ZM82.5538 10.2852H87.5894V85.6601H82.5538V10.2852ZM89.25 10.2852H90.9638V85.6601H89.25V10.2852ZM92.625 10.2852H95.9998V85.714H92.625V10.2852ZM62.3038 10.2852H65.6789V85.6601H62.3038V10.2852ZM69.0539 10.2852H72.4289V85.6601H69.0539V10.2852ZM55.554 10.2852H58.9288V85.6601H55.554V10.2852ZM47.1424 10.2852H50.5178V85.6601H47.1424V10.2852Z" fill="#252425"/>
<path d="M123.286 10.2852H126.607V85.6601H123.286V10.2852ZM116.536 10.2852H118.196V85.6601H116.536V10.2852ZM135.071 10.2852H136.732V85.6601H135.071V10.2852ZM131.696 10.2852H133.357V85.6601H131.696V10.2852ZM103.036 10.2852H104.75V85.6601H103.036V10.2852ZM108.125 10.2852H109.785V85.6601H108.125V10.2852ZM98 10.2852H101.375V85.714H98V10.2852ZM138.446 10.2852H140.107V85.6601H138.446V10.2852ZM172.089 10.2852H175.464V85.6601H172.089V10.2852ZM180.554 10.2852H185.589V85.6601H180.554V10.2852ZM187.25 10.2852H188.964V85.6601H187.25V10.2852ZM190.625 10.2852H194V85.714H190.625V10.2852ZM160.304 10.2852H163.679V85.6601H160.304V10.2852ZM167.054 10.2852H170.429V85.6601H167.054V10.2852ZM153.554 10.2852H156.929V85.6601H153.554V10.2852ZM145.142 10.2852H148.518V85.6601H145.142V10.2852Z" fill="#252425"/>
<path d="M221.286 10.2852H224.607V85.6601H221.286V10.2852ZM214.535 10.2852H216.196V85.6601H214.535V10.2852ZM233.071 10.2852H234.731V85.6601H233.071V10.2852ZM229.695 10.2852H231.356V85.6601H229.695V10.2852ZM201.036 10.2852H202.75V85.6601H201.036V10.2852ZM206.124 10.2852H207.785V85.6601H206.124V10.2852ZM196 10.2852H199.375V85.714H196V10.2852ZM236.446 10.2852H238.107V85.6601H236.446V10.2852ZM270.089 10.2852H273.464V85.6601H270.089V10.2852ZM278.553 10.2852H283.589V85.6601H278.553V10.2852ZM285.249 10.2852H286.963V85.6601H285.249V10.2852ZM288.624 10.2852H291.999V85.714H288.624V10.2852ZM258.303 10.2852H261.678V85.6601H258.303V10.2852ZM265.053 10.2852H268.428V85.6601H265.053V10.2852ZM251.553 10.2852H254.928V85.6601H251.553V10.2852ZM243.142 10.2852H246.517V85.6601H243.142V10.2852Z" fill="#252425"/>
<path d="M319.286 10.2852H322.607V85.6601H319.286V10.2852ZM312.535 10.2852H314.196V85.6601H312.535V10.2852ZM331.071 10.2852H332.731V85.6601H331.071V10.2852ZM327.695 10.2852H329.356V85.6601H327.695V10.2852ZM299.036 10.2852H300.75V85.6601H299.036V10.2852ZM304.124 10.2852H305.785V85.6601H304.124V10.2852ZM294 10.2852H297.375V85.714H294V10.2852ZM334.446 10.2852H336.107V85.6601H334.446V10.2852ZM368.089 10.2852H371.464V85.6601H368.089V10.2852ZM376.553 10.2852H381.589V85.6601H376.553V10.2852ZM383.249 10.2852H384.963V85.6601H383.249V10.2852ZM386.624 10.2852H389.999V85.714H386.624V10.2852ZM356.303 10.2852H359.678V85.6601H356.303V10.2852ZM363.053 10.2852H366.428V85.6601H363.053V10.2852ZM349.553 10.2852H352.928V85.6601H349.553V10.2852ZM341.142 10.2852H344.517V85.6601H341.142V10.2852Z" fill="#252425"/>
</g>
<defs>
<clipPath id="clip0_344_8575">
<rect width="348" height="96" fill="white"/>
</clipPath>
</defs>
</svg>
