<svg width="24" height="24" viewBox="0 0 24 24" fill="none" xmlns="http://www.w3.org/2000/svg">
<g clip-path="url(#clip0_435_3334)">
<path d="M12.6827 16.1612C13.0584 16.1612 13.363 15.8566 13.363 15.4809V12.7595C13.363 12.3838 13.0585 12.0791 12.6827 12.0791H11.322C10.9463 12.0791 10.6416 12.3836 10.6416 12.7595V15.4809C10.6416 15.8566 10.9462 16.1612 11.322 16.1612H12.6827Z" fill="#FECB00"/>
<path d="M21.5733 4.59544H16.7655V3.91509C16.7655 2.7896 15.85 1.87402 14.7244 1.87402H9.28158C8.15609 1.87402 7.24051 2.78956 7.24051 3.91509V4.59544H2.43267C1.30718 4.59544 0.391602 5.51098 0.391602 6.63651C0.391602 7.96896 0.554887 9.13587 0.879099 10.1303C1.20331 11.1248 1.68849 11.9468 2.33234 12.5896C3.41578 13.6716 4.79581 14.1204 6.34539 14.1204H9.28158V12.7597C9.28158 11.6342 10.1971 10.7186 11.3226 10.7186H12.6834C13.8088 10.7186 14.7244 11.6342 14.7244 12.7597V14.1204H16.2361C17.5905 14.0641 19.8059 14.476 21.673 12.6175C22.3171 11.9763 22.8025 11.1528 23.1268 10.1537C23.4512 9.1546 23.6144 7.97994 23.6144 6.63651C23.6144 5.51102 22.6989 4.59544 21.5733 4.59544ZM8.60122 3.91509C8.60122 3.53971 8.90616 3.23473 9.28158 3.23473H14.7244C15.0998 3.23473 15.4048 3.53967 15.4048 3.91509V4.59544H8.60122V3.91509Z" fill="#FECB00"/>
<path d="M16.2547 15.4808H14.7244C14.7244 16.6063 13.8089 17.5218 12.6834 17.5218H11.3226C10.1972 17.5218 9.28158 16.6063 9.28158 15.4808H6.35133C4.41078 15.4808 2.70631 14.8853 1.37091 13.552C0.993671 13.1754 0.671545 12.7514 0.391602 12.2979V21.604C0.391602 21.98 0.695902 22.2843 1.07196 22.2843H22.934C23.3101 22.2843 23.6144 21.98 23.6144 21.604V12.3258C23.3307 12.7863 23.0072 13.2093 22.6331 13.5819C20.4863 15.7175 18.2 15.3889 16.2547 15.4808Z" fill="#FECB00"/>
</g>
<defs>
<clipPath id="clip0_435_3334">
<rect width="23.2228" height="23.2228" fill="white" transform="translate(0.389648 0.466797)"/>
</clipPath>
</defs>
</svg>
