<svg width="24" height="24" viewBox="0 0 24 24" fill="none" xmlns="http://www.w3.org/2000/svg">
<path d="M3.16997 20.0003L3.16997 20.0001L3.16997 3.00011V2.99983C3.17131 2.76127 3.2198 2.52532 3.31265 2.30556C3.4055 2.0858 3.54088 1.88656 3.711 1.71931C3.88112 1.55205 4.08263 1.42008 4.30394 1.33098C4.52516 1.24191 4.7618 1.19744 5.00025 1.20011M3.16997 20.0003L12.2 17.0501C12.1574 17.016 12.1045 16.9975 12.05 16.9975C11.9954 16.9975 11.9425 17.016 11.9 17.0501L6.04997 21.4001M3.16997 20.0003C3.17091 20.3393 3.26809 20.671 3.45021 20.9569C3.63228 21.2428 3.89176 21.4711 4.19847 21.6153M3.16997 20.0003L4.19847 21.6153M5.00025 1.20011C5.00035 1.20012 5.00044 1.20012 5.00054 1.20012L4.99997 1.25011V1.20011H5.00025ZM5.00025 1.20011H19H19.0003C19.4767 1.20281 19.9329 1.39329 20.2699 1.73022C20.6068 2.06715 20.7973 2.52335 20.8 2.99983L20.8 3.00011L20.8 20.0001V20.0011C20.7933 20.3269 20.6983 20.6447 20.5252 20.9207C20.3521 21.1967 20.1073 21.4205 19.817 21.5683C19.5266 21.7161 19.2016 21.7824 18.8766 21.76C18.5516 21.7376 18.2387 21.6274 17.9714 21.4411L17.97 21.4401L17.97 21.4401L12.17 17.0901L12.1687 17.0892L12.1687 17.0891C12.135 17.0622 12.0931 17.0475 12.05 17.0475C12.0068 17.0475 11.9649 17.0622 11.9312 17.0891L11.9298 17.0903L11.9298 17.0902L6.07982 21.4402M6.07982 21.4402L6.04997 21.4001M6.07982 21.4402C5.76766 21.6725 5.38926 21.7986 5.00016 21.8001L4.99978 21.8001C4.72223 21.7991 4.44843 21.7359 4.19847 21.6153M6.07982 21.4402L6.07981 21.4402L6.04997 21.4001M6.04997 21.4001C5.74638 21.626 5.37839 21.7487 4.99997 21.7501L4.19847 21.6153" fill="#FECB00" stroke="#FECB00" stroke-width="0.1"/>
<path d="M8.66138 10.2217H14.8238" stroke="white" stroke-linecap="round"/>
</svg>
