<svg width="20" height="23" viewBox="0 0 20 23" fill="none" xmlns="http://www.w3.org/2000/svg">
<rect x="4.14876" y="11.8613" width="12.3376" height="7.77637" fill="#A5A5A5"/>
<path d="M15.2804 2.85699V1.16699C15.2804 0.722826 14.9121 0.354492 14.4679 0.354492C14.0238 0.354492 13.6554 0.722826 13.6554 1.16699V2.79199H6.61376V1.16699C6.61376 0.722826 6.24543 0.354492 5.80126 0.354492C5.3571 0.354492 4.98876 0.722826 4.98876 1.16699V2.85699C2.06376 3.12783 0.644598 4.87199 0.427931 7.46116C0.406264 7.77533 0.666264 8.03533 0.969598 8.03533H19.2996C19.6138 8.03533 19.8738 7.76449 19.8413 7.46116C19.6246 4.87199 18.2054 3.12783 15.2804 2.85699Z" fill="#7A797A"/>
<path d="M18.8013 9.66016H1.46793C0.872098 9.66016 0.384598 10.1477 0.384598 10.7435V17.4168C0.384598 20.6668 2.0096 22.8335 5.80126 22.8335H14.4679C18.2596 22.8335 19.8846 20.6668 19.8846 17.4168V10.7435C19.8846 10.1477 19.3971 9.66016 18.8013 9.66016ZM7.1121 18.7277C7.05793 18.771 7.00377 18.8252 6.9496 18.8577C6.8846 18.901 6.8196 18.9335 6.7546 18.9552C6.6896 18.9877 6.6246 19.0093 6.5596 19.0202C6.48376 19.031 6.41876 19.0418 6.34293 19.0418C6.2021 19.0418 6.06126 19.0093 5.93126 18.9552C5.79043 18.901 5.6821 18.8252 5.57376 18.7277C5.37876 18.5218 5.2596 18.2402 5.2596 17.9585C5.2596 17.6768 5.37876 17.3952 5.57376 17.1893C5.6821 17.0918 5.79043 17.016 5.93126 16.9618C6.12626 16.8752 6.34293 16.8535 6.5596 16.8968C6.6246 16.9077 6.6896 16.9293 6.7546 16.9618C6.8196 16.9835 6.8846 17.016 6.9496 17.0593L7.1121 17.1893C7.3071 17.3952 7.42626 17.6768 7.42626 17.9585C7.42626 18.2402 7.3071 18.5218 7.1121 18.7277ZM7.1121 14.936C6.90626 15.131 6.6246 15.2502 6.34293 15.2502C6.06126 15.2502 5.7796 15.131 5.57376 14.936C5.37876 14.7302 5.2596 14.4485 5.2596 14.1668C5.2596 13.8852 5.37876 13.6035 5.57376 13.3977C5.8771 13.0943 6.35377 12.9968 6.7546 13.1702C6.89543 13.2243 7.0146 13.3002 7.1121 13.3977C7.3071 13.6035 7.42626 13.8852 7.42626 14.1668C7.42626 14.4485 7.3071 14.7302 7.1121 14.936ZM10.9038 18.7277C10.6979 18.9227 10.4163 19.0418 10.1346 19.0418C9.85293 19.0418 9.57127 18.9227 9.36543 18.7277C9.17043 18.5218 9.05126 18.2402 9.05126 17.9585C9.05126 17.6768 9.17043 17.3952 9.36543 17.1893C9.76626 16.7885 10.5029 16.7885 10.9038 17.1893C11.0988 17.3952 11.2179 17.6768 11.2179 17.9585C11.2179 18.2402 11.0988 18.5218 10.9038 18.7277ZM10.9038 14.936L10.7413 15.066C10.6763 15.1093 10.6113 15.1418 10.5463 15.1635C10.4813 15.196 10.4163 15.2177 10.3513 15.2285C10.2754 15.2393 10.2104 15.2502 10.1346 15.2502C9.85293 15.2502 9.57127 15.131 9.36543 14.936C9.17043 14.7302 9.05126 14.4485 9.05126 14.1668C9.05126 13.8852 9.17043 13.6035 9.36543 13.3977C9.46293 13.3002 9.5821 13.2243 9.72293 13.1702C10.1238 12.9968 10.6004 13.0943 10.9038 13.3977C11.0988 13.6035 11.2179 13.8852 11.2179 14.1668C11.2179 14.4485 11.0988 14.7302 10.9038 14.936ZM14.6954 18.7277C14.4896 18.9227 14.2079 19.0418 13.9263 19.0418C13.6446 19.0418 13.3629 18.9227 13.1571 18.7277C12.9621 18.5218 12.8429 18.2402 12.8429 17.9585C12.8429 17.6768 12.9621 17.3952 13.1571 17.1893C13.5579 16.7885 14.2946 16.7885 14.6954 17.1893C14.8904 17.3952 15.0096 17.6768 15.0096 17.9585C15.0096 18.2402 14.8904 18.5218 14.6954 18.7277ZM14.6954 14.936L14.5329 15.066C14.4679 15.1093 14.4029 15.1418 14.3379 15.1635C14.2729 15.196 14.2079 15.2177 14.1429 15.2285C14.0671 15.2393 13.9913 15.2502 13.9263 15.2502C13.6446 15.2502 13.3629 15.131 13.1571 14.936C12.9621 14.7302 12.8429 14.4485 12.8429 14.1668C12.8429 13.8852 12.9621 13.6035 13.1571 13.3977C13.2654 13.3002 13.3738 13.2243 13.5146 13.1702C13.7096 13.0835 13.9263 13.0618 14.1429 13.1052C14.2079 13.116 14.2729 13.1377 14.3379 13.1702C14.4029 13.1918 14.4679 13.2243 14.5329 13.2677L14.6954 13.3977C14.8904 13.6035 15.0096 13.8852 15.0096 14.1668C15.0096 14.4485 14.8904 14.7302 14.6954 14.936Z" fill="#C8C8C8"/>
</svg>
