<svg width="127" height="127" viewBox="0 0 127 127" fill="none" xmlns="http://www.w3.org/2000/svg">
<g filter="url(#filter0_d_309_2082)">
<circle cx="63.5" cy="63.5" r="41.5" fill="white"/>
</g>
<path opacity="0.5" d="M28.0274 84C24.7078 78.6095 22.6959 72.5255 22.1509 66.2291C21.6058 59.9328 22.5424 53.5968 24.8868 47.7222C27.2311 41.8475 30.9189 36.5954 35.6584 32.381C40.3979 28.1667 46.0591 25.1057 52.1945 23.4402C58.3299 21.7747 64.7712 21.5503 71.0089 22.7848C77.2467 24.0193 83.1098 26.6787 88.1347 30.5529C93.1596 34.4271 97.2085 39.4097 99.9612 45.1068C102.714 50.8038 104.095 57.0591 103.995 63.3779" stroke="#FECB00" stroke-width="2"/>
<path d="M85.5 60.25H87.375C87.8723 60.25 88.3492 60.0525 88.7008 59.7008C89.0525 59.3492 89.25 58.8723 89.25 58.375C89.25 57.8777 89.0525 57.4008 88.7008 57.0492C88.3492 56.6975 87.8723 56.5 87.375 56.5H82.8112L79.3706 50.7663C78.7043 49.6557 77.7617 48.7366 76.6346 48.0985C75.5076 47.4604 74.2345 47.125 72.9394 47.125H70.2881L69.8925 45.94C69.6445 45.1928 69.1674 44.5428 68.5288 44.0823C67.8903 43.6219 67.1229 43.3744 66.3356 43.375H59.6625C58.0463 43.375 56.6156 44.4063 56.1075 45.9381L55.7119 47.125H53.0588C51.7636 47.125 50.4905 47.4604 49.3635 48.0985C48.2364 48.7366 47.2939 49.6557 46.6275 50.7663L43.1869 56.5H38.625C38.1277 56.5 37.6508 56.6975 37.2992 57.0492C36.9475 57.4008 36.75 57.8777 36.75 58.375C36.75 58.8723 36.9475 59.3492 37.2992 59.7008C37.6508 60.0525 38.1277 60.25 38.625 60.25H40.5L38.25 63.2519C37.2763 64.5501 36.75 66.1291 36.75 67.7519V75.2519C36.75 76.2464 37.1451 77.2003 37.8483 77.9035C38.5516 78.6068 39.5054 79.0019 40.5 79.0019V80.8769C40.5 81.8714 40.8951 82.8253 41.5983 83.5285C42.3016 84.2318 43.2554 84.6269 44.25 84.6269H48C48.9946 84.6269 49.9484 84.2318 50.6516 83.5285C51.3549 82.8253 51.75 81.8714 51.75 80.8769V79.0019H74.25V80.8769C74.25 81.8714 74.6451 82.8253 75.3484 83.5285C76.0516 84.2318 77.0054 84.6269 78 84.6269H81.75C82.7446 84.6269 83.6984 84.2318 84.4016 83.5285C85.1049 82.8253 85.5 81.8714 85.5 80.8769V79.0019C86.4946 79.0019 87.4484 78.6068 88.1516 77.9035C88.8549 77.2003 89.25 76.2464 89.25 75.2519V67.7519C89.25 66.13 88.7231 64.5494 87.75 63.2519L85.5 60.25ZM45.1875 73.375C44.818 73.3749 44.4522 73.302 44.1109 73.1605C43.7696 73.019 43.4595 72.8116 43.1984 72.5503C42.9372 72.289 42.7301 71.9787 42.5888 71.6374C42.4475 71.296 42.3749 70.9301 42.375 70.5606C42.3751 70.1912 42.448 69.8253 42.5895 69.484C42.731 69.1427 42.9384 68.8327 43.1997 68.5715C43.461 68.3103 43.7713 68.1032 44.1126 67.9619C44.454 67.8207 44.8199 67.748 45.1894 67.7481C45.9355 67.7484 46.6511 68.045 47.1785 68.5728C47.7059 69.1006 48.0021 69.8163 48.0019 70.5625C48.0016 71.3087 47.705 72.0242 47.1772 72.5516C46.6494 73.0791 45.9337 73.3752 45.1875 73.375ZM77.9194 58.675C76.3792 59.702 74.5694 60.25 72.7181 60.25H53.28C51.4296 60.25 49.6206 59.7027 48.0806 58.6769L46.7775 57.8088L49.845 52.6975C50.1782 52.1422 50.6495 51.6827 51.213 51.3636C51.7765 51.0446 52.4131 50.8769 53.0606 50.8769H72.9412C73.5888 50.8769 74.2254 51.0446 74.7889 51.3636C75.3524 51.6827 75.8237 52.1422 76.1569 52.6975L79.2244 57.8088L77.9212 58.6769L77.9194 58.675ZM80.8125 73.375C80.443 73.3749 80.0772 73.302 79.7359 73.1605C79.3946 73.019 79.0845 72.8116 78.8234 72.5503C78.5622 72.289 78.3551 71.9787 78.2138 71.6374C78.0725 71.296 77.9999 70.9301 78 70.5606C78.0001 70.1912 78.073 69.8253 78.2145 69.484C78.356 69.1427 78.5634 68.8327 78.8247 68.5715C79.086 68.3103 79.3963 68.1032 79.7376 67.9619C80.079 67.8207 80.4449 67.748 80.8144 67.7481C81.5605 67.7484 82.2761 68.045 82.8035 68.5728C83.3309 69.1006 83.6271 69.8163 83.6269 70.5625C83.6266 71.3087 83.33 72.0242 82.8022 72.5516C82.2744 73.0791 81.5587 73.3752 80.8125 73.375Z" fill="#FECB00"/>
<defs>
<filter id="filter0_d_309_2082" x="0" y="0" width="127" height="127" filterUnits="userSpaceOnUse" color-interpolation-filters="sRGB">
<feFlood flood-opacity="0" result="BackgroundImageFix"/>
<feColorMatrix in="SourceAlpha" type="matrix" values="0 0 0 0 0 0 0 0 0 0 0 0 0 0 0 0 0 0 127 0" result="hardAlpha"/>
<feOffset/>
<feGaussianBlur stdDeviation="11"/>
<feComposite in2="hardAlpha" operator="out"/>
<feColorMatrix type="matrix" values="0 0 0 0 0 0 0 0 0 0 0 0 0 0 0 0 0 0 0.15 0"/>
<feBlend mode="normal" in2="BackgroundImageFix" result="effect1_dropShadow_309_2082"/>
<feBlend mode="normal" in="SourceGraphic" in2="effect1_dropShadow_309_2082" result="shape"/>
</filter>
</defs>
</svg>
