<svg width="24" height="24" viewBox="0 0 24 24" fill="none" xmlns="http://www.w3.org/2000/svg">
<g clip-path="url(#clip0_284_1351)">
<path d="M21.75 2H6.25C5.65343 2.00053 5.08144 2.23775 4.65959 2.65959C4.23775 3.08144 4.00053 3.65343 4 4.25V13.25C4.00053 13.8466 4.23775 14.4186 4.65959 14.8404C5.08144 15.2622 5.65343 15.4995 6.25 15.5H21.75C22.3466 15.4995 22.9186 15.2622 23.3404 14.8404C23.7622 14.4186 23.9995 13.8466 24 13.25V4.25C23.9995 3.65343 23.7622 3.08144 23.3404 2.65959C22.9186 2.23775 22.3466 2.00053 21.75 2ZM9.25 6.5H7.75C7.55109 6.5 7.36032 6.42098 7.21967 6.28033C7.07902 6.13968 7 5.94891 7 5.75C7 5.55109 7.07902 5.36032 7.21967 5.21967C7.36032 5.07902 7.55109 5 7.75 5H9.25C9.44891 5 9.63968 5.07902 9.78033 5.21967C9.92098 5.36032 10 5.55109 10 5.75C10 5.94891 9.92098 6.13968 9.78033 6.28033C9.63968 6.42098 9.44891 6.5 9.25 6.5ZM14 11.75C12.346 11.75 11 10.404 11 8.75C11 7.096 12.346 5.75 14 5.75C15.654 5.75 17 7.096 17 8.75C17 10.404 15.654 11.75 14 11.75ZM20.25 12.5H18.75C18.5511 12.5 18.3603 12.421 18.2197 12.2803C18.079 12.1397 18 11.9489 18 11.75C18 11.5511 18.079 11.3603 18.2197 11.2197C18.3603 11.079 18.5511 11 18.75 11H20.25C20.4489 11 20.6397 11.079 20.7803 11.2197C20.921 11.3603 21 11.5511 21 11.75C21 11.9489 20.921 12.1397 20.7803 12.2803C20.6397 12.421 20.4489 12.5 20.25 12.5Z" fill="#FECB00"/>
<path d="M20.25 17.0003H4.75004C4.15346 16.9998 3.58147 16.7626 3.15963 16.3407C2.73779 15.9189 2.50057 15.3469 2.50004 14.7503V5.98633L0.074038 15.0303C-0.0744405 15.6066 0.00917244 16.218 0.306892 16.7332C0.604612 17.2485 1.09265 17.6262 1.66604 17.7853L17.129 21.9263C17.4137 22.0022 17.7106 22.0212 18.0027 21.9822C18.2947 21.9433 18.5762 21.8473 18.8311 21.6995C19.0861 21.5518 19.3094 21.3552 19.4883 21.1212C19.6672 20.8871 19.7983 20.6201 19.874 20.3353L20.794 16.9253C20.6166 16.9733 20.4338 16.9985 20.25 17.0003Z" fill="#FECB00"/>
</g>
<defs>
<clipPath id="clip0_284_1351">
<rect width="24" height="24" fill="white"/>
</clipPath>
</defs>
</svg>
