<svg width="40" height="40" viewBox="0 0 40 40" fill="none" xmlns="http://www.w3.org/2000/svg">
<circle cx="20" cy="20" r="20" fill="#F6F6F6"/>
<rect x="11.8442" y="16.126" width="14.3119" height="4.69238" fill="white"/>
<path d="M24.0718 9.63672H15.9286C15.5978 9.63672 15.2797 9.65042 14.9743 9.69153C11.5517 10.0067 9.83398 12.1854 9.83398 16.2002V21.6811C9.83398 27.1621 11.8698 28.2446 15.9286 28.2446H16.4376C16.7175 28.2446 17.0865 28.4501 17.2519 28.6831L18.7787 30.8755C19.4531 31.8483 20.5473 31.8483 21.2217 30.8755L22.7485 28.6831C22.9394 28.409 23.2447 28.2446 23.5628 28.2446H24.0718C27.7998 28.2446 29.8229 26.4085 30.1155 22.7088C30.1537 22.38 30.1664 22.0374 30.1664 21.6811V16.2002C30.1664 11.8291 28.1306 9.63672 24.0718 9.63672ZM15.5596 20.5986C14.8471 20.5986 14.2873 19.982 14.2873 19.2284C14.2873 18.4748 14.8598 17.8582 15.5596 17.8582C16.2594 17.8582 16.832 18.4748 16.832 19.2284C16.832 19.982 16.2594 20.5986 15.5596 20.5986ZM20.0002 20.5986C19.2877 20.5986 18.7278 19.982 18.7278 19.2284C18.7278 18.4748 19.3004 17.8582 20.0002 17.8582C20.7 17.8582 21.2726 18.4748 21.2726 19.2284C21.2726 19.982 20.7127 20.5986 20.0002 20.5986ZM24.4535 20.5986C23.741 20.5986 23.1811 19.982 23.1811 19.2284C23.1811 18.4748 23.7537 17.8582 24.4535 17.8582C25.1533 17.8582 25.7258 18.4748 25.7258 19.2284C25.7258 19.982 25.1533 20.5986 24.4535 20.5986Z" fill="#FECB00"/>
</svg>
