<svg width="27" height="26" viewBox="0 0 27 26" fill="none" xmlns="http://www.w3.org/2000/svg">
<rect x="5.97865" y="10.126" width="14.3119" height="4.69238" fill="#7A797A"/>
<path d="M17.2062 3.37695H9.06304C8.73222 3.37695 8.41413 3.38968 8.10876 3.42785C4.68609 3.72049 2.9684 5.74356 2.9684 9.47159V14.5611C2.9684 19.6505 5.00419 20.6557 9.06304 20.6557H9.57198C9.8519 20.6557 10.2209 20.8465 10.3863 21.0629L11.9131 23.0986C12.5875 24.002 13.6817 24.002 14.3561 23.0986L15.8829 21.0629C16.0738 20.8084 16.3791 20.6557 16.6972 20.6557H17.2062C20.9342 20.6557 22.9573 18.9507 23.2499 15.5153C23.2881 15.21 23.3008 14.8919 23.3008 14.5611V9.47159C23.3008 5.41274 21.265 3.37695 17.2062 3.37695ZM8.69405 13.5559C7.98152 13.5559 7.42168 12.9833 7.42168 12.2835C7.42168 11.5837 7.99425 11.0112 8.69405 11.0112C9.39385 11.0112 9.96642 11.5837 9.96642 12.2835C9.96642 12.9833 9.39385 13.5559 8.69405 13.5559ZM13.1346 13.5559C12.4221 13.5559 11.8622 12.9833 11.8622 12.2835C11.8622 11.5837 12.4348 11.0112 13.1346 11.0112C13.8344 11.0112 14.407 11.5837 14.407 12.2835C14.407 12.9833 13.8471 13.5559 13.1346 13.5559ZM17.5879 13.5559C16.8754 13.5559 16.3155 12.9833 16.3155 12.2835C16.3155 11.5837 16.8881 11.0112 17.5879 11.0112C18.2877 11.0112 18.8603 11.5837 18.8603 12.2835C18.8603 12.9833 18.2877 13.5559 17.5879 13.5559Z" fill="#C8C8C8"/>
</svg>
