<svg width="26" height="26" viewBox="0 0 26 26" fill="none" xmlns="http://www.w3.org/2000/svg">
<path d="M12.9784 24.1867C11.5069 24.1894 10.0494 23.9013 8.68956 23.339C7.32974 22.7766 6.09447 21.9511 5.05472 20.9098C0.684887 16.54 0.684887 9.43032 5.05472 5.06054C6.09292 4.0165 7.3279 3.18874 8.68816 2.62518C10.0484 2.06163 11.507 1.77347 12.9793 1.77738C15.9729 1.77738 18.7872 2.94286 20.903 5.06054C23.0198 7.17731 24.1862 9.99155 24.1862 12.9852C24.1862 15.9788 23.0207 18.793 20.903 20.9098C19.8631 21.951 18.6276 22.7766 17.2677 23.3389C15.9077 23.9013 14.4501 24.1894 12.9784 24.1867ZM12.9793 3.57052C11.7425 3.56699 10.5172 3.80893 9.37453 4.2823C8.23184 4.75568 7.19444 5.45109 6.32242 6.32825C4.54457 8.10615 3.5655 10.4703 3.5655 12.9852C3.5655 15.5 4.54457 17.8633 6.32242 19.6421C9.99289 23.3125 15.9657 23.3135 19.6353 19.6421C21.4132 17.8642 22.3931 15.5 22.3931 12.9852C22.3931 10.4703 21.414 8.10701 19.6353 6.32825C18.7633 5.45138 17.726 4.75615 16.5835 4.28279C15.441 3.80942 14.216 3.56736 12.9793 3.57052Z" fill="#FECB00"/>
<path d="M9.17495 17.6854C8.99747 17.6858 8.82388 17.6334 8.6762 17.535C8.52853 17.4365 8.41342 17.2964 8.34549 17.1325C8.27759 16.9685 8.25993 16.788 8.29476 16.614C8.32959 16.44 8.41532 16.2802 8.5411 16.155L16.1483 8.54775C16.2316 8.4645 16.3304 8.39846 16.4391 8.3534C16.5479 8.30835 16.6645 8.28516 16.7822 8.28516C16.8999 8.28516 17.0165 8.30835 17.1252 8.3534C17.234 8.39846 17.3328 8.4645 17.416 8.54775C17.4993 8.63098 17.5653 8.7298 17.6104 8.83856C17.6554 8.94732 17.6786 9.06388 17.6786 9.1816C17.6786 9.29933 17.6554 9.41589 17.6104 9.52465C17.5653 9.63341 17.4993 9.73222 17.416 9.81546L9.8088 17.4227C9.72577 17.5063 9.627 17.5725 9.51819 17.6176C9.40939 17.6627 9.29272 17.6857 9.17495 17.6854Z" fill="#FECB00"/>
<path d="M16.7828 17.6842C16.665 17.6843 16.5484 17.6612 16.4396 17.6162C16.3309 17.5711 16.2321 17.5049 16.1489 17.4215L8.54165 9.81426C8.37706 9.64542 8.28562 9.41854 8.28713 9.18276C8.28863 8.94697 8.38297 8.72128 8.5497 8.55456C8.71643 8.38783 8.94213 8.29351 9.17791 8.29201C9.41369 8.29051 9.64057 8.38196 9.8094 8.54656L17.4166 16.1538C17.5425 16.279 17.6282 16.4388 17.6631 16.6128C17.6979 16.7868 17.6802 16.9673 17.6122 17.1313C17.5443 17.2952 17.4292 17.4354 17.2816 17.5338C17.1339 17.6322 16.9603 17.6846 16.7828 17.6842Z" fill="#FECB00"/>
</svg>
