<svg width="25" height="25" viewBox="0 0 25 25" fill="none" xmlns="http://www.w3.org/2000/svg">
<g clip-path="url(#clip0_284_1739)">
<path d="M21.75 3.49023H3.25C2.52082 3.49076 1.82165 3.78067 1.30604 4.29628C0.790431 4.81189 0.50053 5.51105 0.5 6.24023L0.5 18.7402C0.50053 19.4694 0.790431 20.1686 1.30604 20.6842C1.82165 21.1998 2.52082 21.4897 3.25 21.4902H21.75C22.4792 21.4897 23.1783 21.1998 23.694 20.6842C24.2096 20.1686 24.4995 19.4694 24.5 18.7402V6.24023C24.4995 5.51105 24.2096 4.81189 23.694 4.29628C23.1783 3.78067 22.4792 3.49076 21.75 3.49023ZM8 7.49023C9.378 7.49023 10.5 8.61223 10.5 9.99023C10.5 11.3682 9.378 12.4902 8 12.4902C6.622 12.4902 5.5 11.3682 5.5 9.99023C5.5 8.61223 6.622 7.49023 8 7.49023ZM12.5 16.7402C12.5 16.9391 12.421 17.1299 12.2803 17.2706C12.1397 17.4112 11.9489 17.4902 11.75 17.4902H4.25C4.05109 17.4902 3.86032 17.4112 3.71967 17.2706C3.57902 17.1299 3.5 16.9391 3.5 16.7402V16.2402C3.50053 15.5111 3.79043 14.8119 4.30604 14.2963C4.82165 13.7807 5.52082 13.4908 6.25 13.4902H9.75C10.4792 13.4908 11.1783 13.7807 11.694 14.2963C12.2096 14.8119 12.4995 15.5111 12.5 16.2402V16.7402ZM20.75 17.4902H15.25C15.0511 17.4902 14.8603 17.4112 14.7197 17.2706C14.579 17.1299 14.5 16.9391 14.5 16.7402C14.5 16.5413 14.579 16.3506 14.7197 16.2099C14.8603 16.0693 15.0511 15.9902 15.25 15.9902H20.75C20.9489 15.9902 21.1397 16.0693 21.2803 16.2099C21.421 16.3506 21.5 16.5413 21.5 16.7402C21.5 16.9391 21.421 17.1299 21.2803 17.2706C21.1397 17.4112 20.9489 17.4902 20.75 17.4902ZM20.75 13.4902H15.25C15.0511 13.4902 14.8603 13.4112 14.7197 13.2706C14.579 13.1299 14.5 12.9391 14.5 12.7402C14.5 12.5413 14.579 12.3506 14.7197 12.2099C14.8603 12.0693 15.0511 11.9902 15.25 11.9902H20.75C20.9489 11.9902 21.1397 12.0693 21.2803 12.2099C21.421 12.3506 21.5 12.5413 21.5 12.7402C21.5 12.9391 21.421 13.1299 21.2803 13.2706C21.1397 13.4112 20.9489 13.4902 20.75 13.4902ZM20.75 9.49023H15.25C15.0511 9.49023 14.8603 9.41122 14.7197 9.27056C14.579 9.12991 14.5 8.93915 14.5 8.74023C14.5 8.54132 14.579 8.35056 14.7197 8.2099C14.8603 8.06925 15.0511 7.99023 15.25 7.99023H20.75C20.9489 7.99023 21.1397 8.06925 21.2803 8.2099C21.421 8.35056 21.5 8.54132 21.5 8.74023C21.5 8.93915 21.421 9.12991 21.2803 9.27056C21.1397 9.41122 20.9489 9.49023 20.75 9.49023Z" fill="#FECB00"/>
</g>
<defs>
<clipPath id="clip0_284_1739">
<rect width="24" height="24" fill="white" transform="translate(0.5 0.490234)"/>
</clipPath>
</defs>
</svg>
