<svg width="23" height="23" viewBox="0 0 23 23" fill="none" xmlns="http://www.w3.org/2000/svg">
<path d="M22.5 11.1875C22.5 12.1262 21.3468 12.8998 21.1158 13.7652C20.8775 14.6598 21.4807 15.9065 21.0278 16.6893C20.5677 17.485 19.1835 17.5803 18.5382 18.2257C17.8928 18.871 17.7975 20.2552 17.0018 20.7153C16.219 21.1682 14.9723 20.565 14.0777 20.8033C13.2123 21.0343 12.4387 22.1875 11.5 22.1875C10.5613 22.1875 9.78767 21.0343 8.92233 20.8033C8.02767 20.565 6.781 21.1682 5.99817 20.7153C5.2025 20.2552 5.10717 18.871 4.46183 18.2257C3.8165 17.5803 2.43233 17.485 1.97217 16.6893C1.51933 15.9065 2.1225 14.6598 1.88417 13.7652C1.65317 12.8998 0.5 12.1262 0.5 11.1875C0.5 10.2488 1.65317 9.47517 1.88417 8.60983C2.1225 7.71517 1.51933 6.4685 1.97217 5.68567C2.43233 4.89 3.8165 4.79467 4.46183 4.14933C5.10717 3.504 5.2025 2.11983 5.99817 1.65967C6.781 1.20683 8.02767 1.81 8.92233 1.57167C9.78767 1.34067 10.5613 0.1875 11.5 0.1875C12.4387 0.1875 13.2123 1.34067 14.0777 1.57167C14.9723 1.81 16.219 1.20683 17.0018 1.65967C17.7975 2.11983 17.8928 3.504 18.5382 4.14933C19.1835 4.79467 20.5677 4.89 21.0278 5.68567C21.4807 6.4685 20.8775 7.71517 21.1158 8.60983C21.3468 9.47517 22.5 10.2488 22.5 11.1875Z" fill="#FECB00"/>
<path d="M11.9488 14.0963V13.6054C11.9488 13.2539 12.0215 12.9327 12.167 12.6418C12.3155 12.3479 12.5306 12.113 12.8124 11.9373C13.0973 11.7585 13.4412 11.6691 13.8442 11.6691C14.2564 11.6691 14.6018 11.7569 14.8806 11.9327C15.1594 12.1085 15.37 12.3433 15.5124 12.6373C15.6579 12.9312 15.7306 13.2539 15.7306 13.6054V14.0963C15.7306 14.4479 15.6579 14.7706 15.5124 15.0645C15.367 15.3554 15.1533 15.5903 14.8715 15.7691C14.5927 15.9448 14.2503 16.0327 13.8442 16.0327C13.4351 16.0327 13.0897 15.9448 12.8079 15.7691C12.5261 15.5903 12.3124 15.3554 12.167 15.0645C12.0215 14.7706 11.9488 14.4479 11.9488 14.0963ZM13.0079 13.6054V14.0963C13.0079 14.3569 13.07 14.5933 13.1942 14.8054C13.3185 15.0176 13.5351 15.1236 13.8442 15.1236C14.1503 15.1236 14.3639 15.0176 14.4851 14.8054C14.6064 14.5933 14.667 14.3569 14.667 14.0963V13.6054C14.667 13.3448 14.6079 13.1085 14.4897 12.8963C14.3745 12.6842 14.1594 12.5782 13.8442 12.5782C13.5412 12.5782 13.3261 12.6842 13.1988 12.8963C13.0715 13.1085 13.0079 13.3448 13.0079 13.6054ZM7.26697 8.76907V8.27816C7.26697 7.92664 7.3397 7.60392 7.48515 7.30998C7.63363 7.01604 7.84879 6.78119 8.1306 6.60543C8.41545 6.42968 8.75939 6.3418 9.16242 6.3418C9.57454 6.3418 9.92 6.42968 10.1988 6.60543C10.4776 6.78119 10.6882 7.01604 10.8306 7.30998C10.973 7.60392 11.0442 7.92664 11.0442 8.27816V8.76907C11.0442 9.12058 10.9715 9.44331 10.8261 9.73725C10.6836 10.0282 10.4715 10.263 10.1897 10.4418C9.91091 10.6176 9.56848 10.7054 9.16242 10.7054C8.7503 10.7054 8.40333 10.6176 8.12151 10.4418C7.84273 10.263 7.6306 10.0282 7.48515 9.73725C7.3397 9.44331 7.26697 9.12058 7.26697 8.76907ZM8.3306 8.27816V8.76907C8.3306 9.02968 8.39121 9.26604 8.51242 9.47816C8.63666 9.69028 8.85333 9.79634 9.16242 9.79634C9.46545 9.79634 9.67757 9.69028 9.79879 9.47816C9.92303 9.26604 9.98515 9.02968 9.98515 8.76907V8.27816C9.98515 8.01755 9.92606 7.78119 9.80788 7.56907C9.68969 7.35695 9.47454 7.25089 9.16242 7.25089C8.85939 7.25089 8.64424 7.35695 8.51697 7.56907C8.39273 7.78119 8.3306 8.01755 8.3306 8.27816ZM7.69879 15.8418L14.0988 6.53271H15.1851L8.78515 15.8418H7.69879Z" fill="black"/>
</svg>
