<svg width="23" height="24" viewBox="0 0 23 24" fill="none" xmlns="http://www.w3.org/2000/svg">
<path d="M19.9346 10.0406H19.8752V8.64582C19.8752 4.16535 16.0852 0.533203 11.4099 0.533203C6.73453 0.533203 2.94452 4.16535 2.94452 8.64582V10.0406H2.58811C1.28117 10.0406 0.27128 11.1507 0.27128 12.4317V15.9899C0.238362 17.2314 1.26195 18.2635 2.55747 18.295C2.5677 18.2953 2.57788 18.2955 2.58811 18.2956H4.78612C5.09744 18.2816 5.33799 18.0283 5.32332 17.7299C5.32281 17.7192 5.32196 17.7084 5.32076 17.6978V10.7238C5.32076 10.3822 5.11285 10.0406 4.78612 10.0406H4.13264V8.64577C4.13264 4.79416 7.39079 1.67176 11.4099 1.67176C15.4289 1.67176 18.6871 4.79416 18.6871 8.64577V10.0406H18.0336C17.7069 10.0406 17.499 10.3821 17.499 10.7238V17.6978C17.4658 17.9948 17.6902 18.2613 18.0001 18.2931C18.0112 18.2942 18.0224 18.295 18.0336 18.2955H18.7168L18.6574 18.3809C18.2178 18.9407 17.6478 19.3944 16.9929 19.7058C16.3379 20.0171 15.6162 20.1775 14.8851 20.1742C14.5606 18.6492 13.0074 17.6651 11.4162 17.9761C10.0554 18.2421 9.07428 19.3842 9.0633 20.7151C9.07956 22.276 10.4047 23.5332 12.0336 23.5331C12.84 23.5206 13.6086 23.2034 14.1722 22.6507C14.5525 22.2774 14.8017 21.7998 14.8851 21.2843C15.8006 21.2876 16.7043 21.0861 17.5242 20.6957C18.3441 20.3053 19.0576 19.7368 19.6078 19.0356L20.1722 18.2385C21.4494 18.1531 22.2514 17.3846 22.2514 16.2744V12.7162C22.2515 11.4924 21.301 10.0406 19.9346 10.0406ZM4.13264 17.1569H2.58811C1.94851 17.142 1.44263 16.6331 1.45821 16.0201C1.45849 16.01 1.45889 16 1.4594 15.9898V12.4317C1.4594 11.777 1.93464 11.1792 2.58811 11.1792H4.13264V17.1569ZM13.3109 21.8537C13.148 22.0229 12.9506 22.1583 12.7309 22.2513C12.5112 22.3444 12.2739 22.3931 12.0337 22.3946C11.0673 22.3799 10.283 21.6409 10.2515 20.7151C10.2511 19.7876 11.0354 19.0354 12.0032 19.035C12.9711 19.0346 13.756 19.7862 13.7564 20.7137V20.7151C13.7687 20.9241 13.7354 21.1333 13.6587 21.3293C13.5819 21.5254 13.4635 21.7039 13.3109 21.8537ZM21.0633 16.2745C21.0633 17.0431 20.291 17.1569 19.9346 17.1569H18.6871V11.1792H19.9346C20.5881 11.1792 21.0633 12.0617 21.0633 12.7164V16.2745Z" fill="#FECB00"/>
</svg>
