<svg width="23" height="23" viewBox="0 0 23 23" fill="none" xmlns="http://www.w3.org/2000/svg">
<path d="M7.375 13.9561C7.375 14.1467 7.44743 14.3295 7.57636 14.4643C7.70529 14.5991 7.88016 14.6748 8.0625 14.6748L14.9375 14.6748C15.1198 14.6748 15.2947 14.5991 15.4236 14.4643C15.5526 14.3295 15.625 14.1467 15.625 13.9561C15.625 13.7654 15.5526 13.5826 15.4236 13.4478C15.2947 13.313 15.1198 13.2373 14.9375 13.2373L8.0625 13.2373C7.88016 13.2373 7.70529 13.313 7.57636 13.4478C7.44743 13.5826 7.375 13.7654 7.375 13.9561ZM7.375 10.9248C7.375 11.1154 7.44743 11.2982 7.57636 11.433C7.70529 11.5678 7.88016 11.6436 8.0625 11.6436L14.9375 11.6436C15.1198 11.6436 15.2947 11.5678 15.4236 11.433C15.5526 11.2982 15.625 11.1154 15.625 10.9248C15.625 10.7342 15.5526 10.5514 15.4236 10.4166C15.2947 10.2818 15.1198 10.2061 14.9375 10.2061L8.0625 10.2061C7.88016 10.2061 7.70529 10.2818 7.57636 10.4166C7.44743 10.5514 7.375 10.7342 7.375 10.9248Z" fill="#FECB00"/>
<path d="M14.25 2.78418C14.4323 2.78418 14.6072 2.71175 14.7361 2.58282C14.8651 2.45388 14.9375 2.27902 14.9375 2.09668C14.9375 1.91434 14.8651 1.73947 14.7361 1.61054C14.6072 1.48161 14.4323 1.40918 14.25 1.40918H8.75C8.56766 1.40918 8.3928 1.48161 8.26386 1.61054C8.13493 1.73947 8.0625 1.91434 8.0625 2.09668C8.0625 2.27902 8.13493 2.45388 8.26386 2.58282C8.3928 2.71175 8.56766 2.78418 8.75 2.78418H14.25Z" fill="#FECB00"/>
<path d="M3.9375 4.47168C3.75516 4.47168 3.5803 4.54411 3.45136 4.67304C3.32243 4.80198 3.25 4.97684 3.25 5.15918C3.25 5.34152 3.32243 5.51638 3.45136 5.64532C3.5803 5.77425 3.75516 5.84668 3.9375 5.84668H4.625V18.4967C4.625 20.0504 5.89 21.3154 7.44375 21.3154H15.5562C17.11 21.3154 18.375 20.0504 18.375 18.4967V5.84668H19.0625C19.2448 5.84668 19.4197 5.77425 19.5486 5.64532C19.6776 5.51638 19.75 5.34152 19.75 5.15918C19.75 4.97684 19.6776 4.80198 19.5486 4.67304C19.4197 4.54411 19.2448 4.47168 19.0625 4.47168H5.3125H3.9375ZM17 5.84668V18.4967C17 18.8796 16.8479 19.2468 16.5771 19.5176C16.3064 19.7883 15.9392 19.9404 15.5562 19.9404H7.44375C7.06084 19.9404 6.69362 19.7883 6.42286 19.5176C6.15211 19.2468 6 18.8796 6 18.4967V5.84668H17Z" fill="#FECB00"/>
</svg>
