<svg width="23" height="23" viewBox="0 0 23 23" fill="none" xmlns="http://www.w3.org/2000/svg">
<g clip-path="url(#clip0_488_10238)">
<path d="M17.2275 19.6846H5.77195C5.63961 19.6846 5.51268 19.632 5.4191 19.5384C5.32552 19.4448 5.27295 19.3179 5.27295 19.1856V11.712C5.27295 7.94953 7.83383 5.32129 11.5 5.32129C15.1662 5.32129 17.7265 7.94953 17.7265 11.712V19.1856C17.7265 19.3179 17.674 19.4448 17.5804 19.5384C17.4868 19.632 17.3599 19.6846 17.2275 19.6846ZM6.27095 18.6866H16.7285V11.712C16.7285 8.53736 14.5788 6.31929 11.5 6.31929C8.42115 6.31929 6.27095 8.53736 6.27095 11.712V18.6866Z" fill="#FECB00"/>
<path d="M15.3204 13.0014C15.188 13.0014 15.0611 12.9489 14.9675 12.8553C14.8739 12.7617 14.8214 12.6348 14.8214 12.5024C14.8214 10.712 13.9421 9.06881 12.7754 8.68059C12.7132 8.65988 12.6556 8.62711 12.606 8.58416C12.5564 8.5412 12.5158 8.4889 12.4864 8.43024C12.4571 8.37158 12.4395 8.3077 12.4348 8.24226C12.4301 8.17683 12.4384 8.1111 12.4591 8.04885C12.4798 7.9866 12.5126 7.92903 12.5555 7.87944C12.5985 7.82985 12.6508 7.78921 12.7094 7.75983C12.7681 7.73045 12.832 7.71292 12.8974 7.70822C12.9628 7.70353 13.0286 7.71177 13.0908 7.73248C14.6717 8.25993 15.8194 10.2659 15.8194 12.5024C15.8194 12.6348 15.7668 12.7617 15.6732 12.8553C15.5796 12.9489 15.4527 13.0014 15.3204 13.0014ZM20.5684 22.5479H2.43064C2.2983 22.5479 2.17137 22.4953 2.07779 22.4017C1.98421 22.3081 1.93164 22.1812 1.93164 22.0488C1.93269 21.1573 2.28732 20.3026 2.91774 19.6722C3.54815 19.0418 4.40287 18.6871 5.29441 18.6861H17.7046C18.5961 18.6871 19.4508 19.0418 20.0813 19.6722C20.7117 20.3026 21.0663 21.1573 21.0674 22.0488C21.0674 22.1812 21.0148 22.3081 20.9212 22.4017C20.8276 22.4953 20.7007 22.5479 20.5684 22.5479ZM2.98303 21.5498H20.016C19.9013 21.0218 19.6096 20.5489 19.1892 20.2095C18.7687 19.8702 18.2449 19.6848 17.7046 19.6841H5.29441C4.7541 19.6848 4.23027 19.8702 3.80984 20.2095C3.38942 20.5489 3.09768 21.0218 2.98303 21.5498ZM3.86277 12.0469H0.999002C0.866658 12.0469 0.739735 11.9943 0.646154 11.9007C0.552573 11.8071 0.5 11.6802 0.5 11.5479C0.5 11.4155 0.552573 11.2886 0.646154 11.195C0.739735 11.1014 0.866658 11.0488 0.999002 11.0488H3.86277C3.99512 11.0488 4.12204 11.1014 4.21562 11.195C4.3092 11.2886 4.36178 11.4155 4.36178 11.5479C4.36178 11.6802 4.3092 11.8071 4.21562 11.9007C4.12204 11.9943 3.99512 12.0469 3.86277 12.0469ZM5.73204 6.5229C5.6665 6.52297 5.60159 6.51009 5.54105 6.485C5.48051 6.45991 5.42552 6.4231 5.37924 6.37669L3.47006 4.46701C3.37916 4.3729 3.32887 4.24685 3.33 4.11601C3.33114 3.98518 3.38362 3.86002 3.47614 3.7675C3.56866 3.67498 3.69381 3.6225 3.82465 3.62137C3.95549 3.62023 4.08154 3.67053 4.17565 3.76142L6.08483 5.6711C6.1546 5.74089 6.2021 5.8298 6.22135 5.92658C6.24059 6.02336 6.23071 6.12368 6.19295 6.21484C6.15519 6.30601 6.09125 6.38394 6.00921 6.43877C5.92717 6.4936 5.83071 6.52288 5.73204 6.5229ZM11.5 4.40963C11.3677 4.40963 11.2407 4.35705 11.1472 4.26347C11.0536 4.16989 11.001 4.04297 11.001 3.91063V1.04685C11.001 0.91451 11.0536 0.787587 11.1472 0.694006C11.2407 0.600425 11.3677 0.547852 11.5 0.547852C11.6323 0.547852 11.7593 0.600425 11.8528 0.694006C11.9464 0.787587 11.999 0.91451 11.999 1.04685V3.91063C11.999 4.04297 11.9464 4.16989 11.8528 4.26347C11.7593 4.35705 11.6323 4.40963 11.5 4.40963ZM17.3757 6.41462C17.2771 6.4146 17.1806 6.38532 17.0986 6.33049C17.0165 6.27565 16.9526 6.19773 16.9148 6.10656C16.8771 6.01539 16.8672 5.91508 16.8864 5.8183C16.9057 5.72151 16.9532 5.63261 17.023 5.56282L18.9321 3.65364C19.0269 3.56609 19.1519 3.5186 19.2809 3.52113C19.4099 3.52366 19.5329 3.57601 19.6242 3.66721C19.7154 3.75841 19.7679 3.88139 19.7705 4.01039C19.7731 4.13939 19.7257 4.2644 19.6382 4.35923L17.7285 6.26841C17.6823 6.31482 17.6273 6.35162 17.5667 6.37671C17.5062 6.4018 17.4413 6.41469 17.3757 6.41462ZM22.001 12.0469H19.1372C19.0049 12.0469 18.878 11.9943 18.7844 11.9007C18.6908 11.8071 18.6382 11.6802 18.6382 11.5479C18.6382 11.4155 18.6908 11.2886 18.7844 11.195C18.878 11.1014 19.0049 11.0488 19.1372 11.0488H22.001C22.1333 11.0488 22.2603 11.1014 22.3538 11.195C22.4474 11.2886 22.5 11.4155 22.5 11.5479C22.5 11.6802 22.4474 11.8071 22.3538 11.9007C22.2603 11.9943 22.1333 12.0469 22.001 12.0469Z" fill="#FECB00"/>
</g>
<defs>
<clipPath id="clip0_488_10238">
<rect width="22" height="22" fill="white" transform="translate(0.5 0.547852)"/>
</clipPath>
</defs>
</svg>
