<svg width="23" height="22" viewBox="0 0 23 22" fill="none" xmlns="http://www.w3.org/2000/svg">
<g clip-path="url(#clip0_509_5372)">
<path d="M22.2705 11C22.2705 4.92486 17.3456 0 11.2705 0C5.19537 0 0.270508 4.92486 0.270508 11C0.270508 16.4904 4.29307 21.0412 9.55176 21.8664V14.1797H6.75879V11H9.55176V8.57656C9.55176 5.81969 11.194 4.29688 13.7066 4.29688C14.9101 4.29688 16.1689 4.51172 16.1689 4.51172V7.21875H14.7819C13.4154 7.21875 12.9893 8.06665 12.9893 8.93655V11H16.04L15.5523 14.1797H12.9893V21.8664C18.248 21.0412 22.2705 16.4904 22.2705 11Z" fill="#FECB00"/>
<path d="M15.5523 14.1797L16.04 11H12.9893V8.93655C12.9893 8.06665 13.4154 7.21875 14.7819 7.21875H16.1689V4.51172C16.1689 4.51172 14.9101 4.29688 13.7066 4.29688C11.194 4.29688 9.55176 5.81969 9.55176 8.57656V11H6.75879V14.1797H9.55176V21.8664C10.1118 21.9542 10.6858 22 11.2705 22C11.8552 22 12.4292 21.9542 12.9893 21.8664V14.1797H15.5523Z" fill="white"/>
</g>
<defs>
<clipPath id="clip0_509_5372">
<rect width="22" height="22" fill="white" transform="translate(0.270508)"/>
</clipPath>
</defs>
</svg>
