<svg width="85" height="85" viewBox="0 0 85 85" fill="none" xmlns="http://www.w3.org/2000/svg">
<g filter="url(#filter0_d_199_745)">
<circle cx="42.927" cy="42.9795" r="20" fill="white"/>
<circle cx="42.927" cy="42.9795" r="19.5" stroke="#DDDDDD"/>
</g>
<path d="M43 33C43.5128 33 43.9355 33.386 43.9933 33.8834L44 34L44.0003 35.314C47.4809 35.7625 50.2381 38.52 50.6862 42.0007L52 42C52.5523 42 53 42.4477 53 43C53 43.5128 52.614 43.9355 52.1166 43.9933L52 44L50.686 44.0003C50.2375 47.4805 47.4805 50.2375 44.0003 50.686L44 52C44 52.5523 43.5523 53 43 53C42.4872 53 42.0645 52.614 42.0067 52.1166L42 52L42.0007 50.6862C38.52 50.2381 35.7625 47.4809 35.314 44.0003L34 44C33.4477 44 33 43.5523 33 43C33 42.4872 33.386 42.0645 33.8834 42.0067L34 42L35.3138 42.0007C35.762 38.5196 38.5196 35.762 42.0007 35.3138L42 34C42 33.4477 42.4477 33 43 33ZM43 39C45.2091 39 47 40.7909 47 43C47 45.2091 45.2091 47 43 47C40.7909 47 39 45.2091 39 43C39 40.7909 40.7909 39 43 39Z" fill="#FECB00"/>
<circle cx="43" cy="43" r="3" fill="white"/>
<defs>
<filter id="filter0_d_199_745" x="0.927002" y="0.979492" width="84" height="84" filterUnits="userSpaceOnUse" color-interpolation-filters="sRGB">
<feFlood flood-opacity="0" result="BackgroundImageFix"/>
<feColorMatrix in="SourceAlpha" type="matrix" values="0 0 0 0 0 0 0 0 0 0 0 0 0 0 0 0 0 0 127 0" result="hardAlpha"/>
<feOffset/>
<feGaussianBlur stdDeviation="11"/>
<feComposite in2="hardAlpha" operator="out"/>
<feColorMatrix type="matrix" values="0 0 0 0 0 0 0 0 0 0 0 0 0 0 0 0 0 0 0.15 0"/>
<feBlend mode="normal" in2="BackgroundImageFix" result="effect1_dropShadow_199_745"/>
<feBlend mode="normal" in="SourceGraphic" in2="effect1_dropShadow_199_745" result="shape"/>
</filter>
</defs>
</svg>
