<svg width="23" height="23" viewBox="0 0 23 23" fill="none" xmlns="http://www.w3.org/2000/svg">
<g clip-path="url(#clip0_488_10247)">
<g clip-path="url(#clip1_488_10247)">
<path d="M12 1.68652C6.29923 1.68652 1.68646 6.2997 1.68646 12.0001C1.68646 17.7008 6.29964 22.3136 12 22.3136C17.7008 22.3136 22.3135 17.7004 22.3135 12.0001C22.3135 6.29929 17.7003 1.68652 12 1.68652ZM12 20.7021C7.18998 20.7021 3.29795 16.8098 3.29795 12.0001C3.29795 7.19004 7.19031 3.29801 12 3.29801C16.81 3.29801 20.702 7.19037 20.702 12.0001C20.702 16.8101 16.8097 20.7021 12 20.7021Z" fill="#FECB00"/>
<path d="M12 10.3213C11.555 10.3213 11.1943 10.682 11.1943 11.127V16.3158C11.1943 16.7608 11.555 17.1215 12 17.1215C12.445 17.1215 12.8058 16.7607 12.8058 16.3157V11.127C12.8058 10.682 12.445 10.3213 12 10.3213Z" fill="#FECB00"/>
<path d="M12 9.33469C12.6007 9.33469 13.0877 8.84769 13.0877 8.24694C13.0877 7.64618 12.6007 7.15918 12 7.15918C11.3992 7.15918 10.9122 7.64618 10.9122 8.24694C10.9122 8.84769 11.3992 9.33469 12 9.33469Z" fill="#FECB00"/>
</g>
</g>
<defs>
<clipPath id="clip0_488_10247">
<rect width="22" height="22" fill="white" transform="translate(0.5 0.760742)"/>
</clipPath>
<clipPath id="clip1_488_10247">
<rect width="20.6271" height="20.6271" fill="white" transform="translate(1.68646 1.68652)"/>
</clipPath>
</defs>
</svg>
