<svg width="23" height="22" viewBox="0 0 23 22" fill="none" xmlns="http://www.w3.org/2000/svg">
<path fill-rule="evenodd" clip-rule="evenodd" d="M9.15893 0.974585C9.78949 0.543274 10.5356 0.3125 11.2996 0.3125C12.0636 0.3125 12.8097 0.543274 13.4403 0.974585L20.4819 5.79325C20.9907 6.14126 21.407 6.60807 21.6947 7.15324C21.9823 7.69841 22.1328 8.3055 22.1329 8.92192V18.0414C22.1329 19.047 21.7334 20.0115 21.0224 20.7225C20.3113 21.4336 19.3469 21.8331 18.3413 21.8331H4.25793C3.25232 21.8331 2.28789 21.4336 1.57682 20.7225C0.865741 20.0115 0.466263 19.047 0.466263 18.0414V8.92192C0.466412 8.3055 0.616844 7.69841 0.904531 7.15324C1.19222 6.60807 1.60848 6.14126 2.11726 5.79325L9.15893 0.974585ZM8.59126 16.9581C8.4476 16.9581 8.30983 17.0152 8.20825 17.1167C8.10666 17.2183 8.0496 17.3561 8.0496 17.4998C8.0496 17.6434 8.10666 17.7812 8.20825 17.8828C8.30983 17.9844 8.4476 18.0414 8.59126 18.0414H14.0079C14.1516 18.0414 14.2894 17.9844 14.3909 17.8828C14.4925 17.7812 14.5496 17.6434 14.5496 17.4998C14.5496 17.3561 14.4925 17.2183 14.3909 17.1167C14.2894 17.0152 14.1516 16.9581 14.0079 16.9581H8.59126Z" fill="#FFE47C"/>
</svg>
