<svg width="14" height="14" viewBox="0 0 14 14" fill="none" xmlns="http://www.w3.org/2000/svg">
<path d="M6.99919 0.342773C3.31732 0.342773 0.33252 3.32745 0.33252 7.00946C0.33252 10.6915 3.31732 13.6761 6.99919 13.6761C10.6811 13.6761 13.6659 10.6915 13.6659 7.00946C13.6659 3.32745 10.6811 0.342773 6.99919 0.342773ZM6.99919 1.67611C9.94472 1.67611 12.3325 4.06412 12.3325 7.00946C12.3325 9.9548 9.94472 12.3428 6.99919 12.3428C4.05365 12.3428 1.66585 9.9548 1.66585 7.00946C1.66585 4.06412 4.05365 1.67611 6.99919 1.67611ZM6.99919 3.67612C6.63099 3.67612 6.33252 3.97478 6.33252 4.34278C6.33252 4.71078 6.63099 5.00945 6.99919 5.00945C7.36739 5.00945 7.66585 4.71078 7.66585 4.34278C7.66585 3.97478 7.36739 3.67612 6.99919 3.67612ZM6.99919 5.67612C6.63099 5.67612 6.33252 5.97479 6.33252 6.34279V9.67613C6.33252 10.0441 6.63099 10.3428 6.99919 10.3428C7.36739 10.3428 7.66585 10.0441 7.66585 9.67613V6.34279C7.66585 5.97479 7.36739 5.67612 6.99919 5.67612Z" fill="#FECB00"/>
</svg>
