<svg width="23" height="22" viewBox="0 0 23 22" fill="none" xmlns="http://www.w3.org/2000/svg">
<g clip-path="url(#clip0_509_5394)">
<path d="M3.02051 0H19.5205C21.033 0 22.2705 1.2375 22.2705 2.75V19.25C22.2705 20.7625 21.033 22 19.5205 22H3.02051C1.50801 22 0.270508 20.7625 0.270508 19.25V2.75C0.270508 1.2375 1.50801 0 3.02051 0Z" fill="#FECB00"/>
<path d="M10.9614 4.66853C7.22792 4.54809 4.09658 7.55899 3.97615 11.2925C3.85571 15.026 6.86661 18.1574 10.6001 18.2778C14.3336 18.3982 17.465 15.3873 17.5854 11.6538V11.5334C17.7058 7.67943 14.6949 4.66853 10.9614 4.66853ZM10.9614 15.7486C8.55271 15.7486 6.5053 13.8217 6.5053 11.4129C6.5053 9.00422 8.43228 6.95681 10.841 6.95681C13.2497 6.95681 15.2971 8.88379 15.2971 11.2925V11.4129C15.2971 13.8217 13.3701 15.7486 10.9614 15.7486Z" fill="white"/>
<path d="M17.9467 5.75243C18.7449 5.75243 19.3919 5.05145 19.3919 4.18676C19.3919 3.32207 18.7449 2.62109 17.9467 2.62109C17.1485 2.62109 16.5015 3.32207 16.5015 4.18676C16.5015 5.05145 17.1485 5.75243 17.9467 5.75243Z" fill="white"/>
</g>
<defs>
<clipPath id="clip0_509_5394">
<rect width="22" height="22" fill="white" transform="translate(0.270508)"/>
</clipPath>
</defs>
</svg>
