<svg width="23" height="23" viewBox="0 0 23 23" fill="none" xmlns="http://www.w3.org/2000/svg">
<g clip-path="url(#clip0_512_6121)">
<path d="M19.75 16.4424H17.3438V14.0361C17.3438 13.8538 17.2713 13.6789 17.1424 13.55C17.0135 13.4211 16.8386 13.3486 16.6562 13.3486C16.4739 13.3486 16.299 13.4211 16.1701 13.55C16.0412 13.6789 15.9688 13.8538 15.9688 14.0361V16.4424H13.5625C13.3802 16.4424 13.2053 16.5148 13.0764 16.6437C12.9474 16.7727 12.875 16.9475 12.875 17.1299C12.875 17.3122 12.9474 17.4871 13.0764 17.616C13.2053 17.745 13.3802 17.8174 13.5625 17.8174H15.9688V20.2236C15.9688 20.406 16.0412 20.5808 16.1701 20.7098C16.299 20.8387 16.4739 20.9111 16.6562 20.9111C16.8386 20.9111 17.0135 20.8387 17.1424 20.7098C17.2713 20.5808 17.3438 20.406 17.3438 20.2236V17.8174H19.75C19.9323 17.8174 20.1072 17.745 20.2361 17.616C20.3651 17.4871 20.4375 17.3122 20.4375 17.1299C20.4375 16.9475 20.3651 16.7727 20.2361 16.6437C20.1072 16.5148 19.9323 16.4424 19.75 16.4424Z" fill="#FECB00"/>
<path d="M11.5 20.9113H4.625C4.44266 20.9113 4.2678 20.8389 4.13886 20.7099C4.00993 20.581 3.9375 20.4061 3.9375 20.2238C3.93987 18.2188 4.73739 16.2967 6.15512 14.8789C7.57285 13.4612 9.49503 12.6637 11.5 12.6613C12.8288 12.6654 14.1145 12.1898 15.1207 11.3219C16.1269 10.4539 16.786 9.25199 16.977 7.93696C17.1679 6.62193 16.8778 5.28216 16.1601 4.16389C15.4423 3.04562 14.345 2.22398 13.0699 1.84999C11.7948 1.47599 10.4275 1.57476 9.21941 2.12815C8.01131 2.68153 7.04351 3.65235 6.4939 4.86218C5.94429 6.07201 5.84979 7.43956 6.22777 8.71349C6.60574 9.98742 7.43081 11.0821 8.55131 11.7964C6.8036 12.4085 5.28891 13.5479 4.21622 15.0574C3.14353 16.5668 2.56572 18.372 2.5625 20.2238C2.5625 20.7708 2.7798 21.2954 3.16659 21.6822C3.55339 22.069 4.07799 22.2863 4.625 22.2863H11.5C11.6823 22.2863 11.8572 22.2139 11.9861 22.0849C12.1151 21.956 12.1875 21.7811 12.1875 21.5988C12.1875 21.4165 12.1151 21.2416 11.9861 21.1127C11.8572 20.9837 11.6823 20.9113 11.5 20.9113ZM7.375 7.1613C7.375 6.34546 7.61693 5.54793 8.07019 4.86958C8.52345 4.19123 9.16769 3.66251 9.92143 3.3503C10.6752 3.03809 11.5046 2.9564 12.3047 3.11557C13.1049 3.27473 13.8399 3.6676 14.4168 4.24449C14.9937 4.82138 15.3866 5.55639 15.5457 6.35656C15.7049 7.15673 15.6232 7.98613 15.311 8.73987C14.9988 9.49362 14.4701 10.1379 13.7917 10.5911C13.1134 11.0444 12.3158 11.2863 11.5 11.2863C10.4063 11.2852 9.35774 10.8503 8.58439 10.0769C7.81104 9.30356 7.37609 8.25499 7.375 7.1613Z" fill="#FECB00"/>
</g>
<defs>
<clipPath id="clip0_512_6121">
<rect width="22" height="22" fill="white" transform="translate(0.5 0.974609)"/>
</clipPath>
</defs>
</svg>
