<svg width="27" height="27" viewBox="0 0 27 27" fill="none" xmlns="http://www.w3.org/2000/svg">
<g clip-path="url(#clip0_284_1685)">
<circle cx="13.5" cy="13.7451" r="13" fill="#FECB00"/>
<path d="M14.7386 8.60875H16.8295V16.7906C16.8258 17.5406 16.6667 18.1864 16.3523 18.7281C16.0379 19.266 15.5985 19.6807 15.0341 19.9724C14.4735 20.2603 13.8201 20.4042 13.0739 20.4042C12.392 20.4042 11.7784 20.283 11.233 20.0406C10.6913 19.7944 10.2614 19.4307 9.94318 18.9497C9.625 18.4686 9.46591 17.8701 9.46591 17.1542H11.5625C11.5663 17.4686 11.6345 17.7394 11.767 17.9667C11.9034 18.194 12.0909 18.3682 12.3295 18.4894C12.5682 18.6106 12.8428 18.6713 13.1534 18.6713C13.4905 18.6713 13.7765 18.6012 14.0114 18.461C14.2462 18.3171 14.4242 18.105 14.5455 17.8247C14.6705 17.5444 14.7348 17.1997 14.7386 16.7906V8.60875Z" fill="white"/>
</g>
<defs>
<clipPath id="clip0_284_1685">
<rect width="26" height="26" fill="white" transform="translate(0.5 0.745117)"/>
</clipPath>
</defs>
</svg>
