<svg width="23" height="23" viewBox="0 0 23 23" fill="none" xmlns="http://www.w3.org/2000/svg">
<g clip-path="url(#clip0_474_9794)">
<path d="M14.9375 2.02441C13.9713 2.02417 13.0185 2.25026 12.1554 2.68456C11.2923 3.11887 10.5429 3.74932 9.96734 4.52538C9.39177 5.30145 9.00599 6.20155 8.84093 7.15356C8.67587 8.10556 8.73611 9.08299 9.01682 10.0075L1.875 17.1494V21.2744H6L13.1418 14.1325C13.9929 14.3909 14.8897 14.4628 15.7711 14.3433C16.6524 14.2237 17.4977 13.9156 18.2492 13.4398C19.0007 12.964 19.6408 12.3319 20.1258 11.5863C20.6109 10.8408 20.9295 9.99944 21.06 9.11962C21.1905 8.2398 21.1298 7.34219 20.8819 6.48796C20.6341 5.63374 20.2051 4.84299 19.624 4.16959C19.0429 3.4962 18.3235 2.956 17.5147 2.58581C16.706 2.21561 15.8269 2.02413 14.9375 2.02441ZM14.9375 13.0244C14.4641 13.0241 13.9933 12.9541 13.5404 12.8167L12.7519 12.5775L12.1695 13.16L9.98248 15.3471L9.03469 14.3994L8.0625 15.3716L9.01036 16.3194L7.92005 17.4098L6.97219 16.4619L6 17.4341L6.94786 18.3819L5.43047 19.8994H3.25V17.7189L9.98908 10.9799L10.5715 10.3973L10.3328 9.60891C10.0389 8.64022 10.058 7.60352 10.3873 6.6463C10.7166 5.68908 11.3394 4.86007 12.1671 4.27721C12.9947 3.69435 13.9851 3.38732 14.9973 3.39978C16.0095 3.41224 16.992 3.74357 17.8051 4.34664C18.6181 4.9497 19.2203 5.79379 19.5259 6.75883C19.8316 7.72387 19.8251 8.76072 19.5075 9.72189C19.1899 10.6831 18.5773 11.5196 17.7568 12.1125C16.9363 12.7054 15.9498 13.0245 14.9375 13.0244Z" fill="#FECB00"/>
<path d="M15.625 8.89941C16.3844 8.89941 17 8.28381 17 7.52441C17 6.76502 16.3844 6.14941 15.625 6.14941C14.8656 6.14941 14.25 6.76502 14.25 7.52441C14.25 8.28381 14.8656 8.89941 15.625 8.89941Z" fill="#FECB00"/>
</g>
<defs>
<clipPath id="clip0_474_9794">
<rect width="22" height="22" fill="white" transform="translate(0.5 0.649414)"/>
</clipPath>
</defs>
</svg>
