<svg width="78" height="91" viewBox="0 0 78 91" fill="none" xmlns="http://www.w3.org/2000/svg">
<path d="M40.8191 90.2924C40.8191 90.2924 38.4146 90.4975 36.9886 90.2924C22.761 89.03 0 59.876 0 38.9038C0 17.417 17.417 0 38.9038 0C60.3907 0 77.8077 17.417 77.8077 38.9038C77.8077 59.876 55.5358 90.2924 40.8191 90.2924ZM47.2622 32.2992L35.9112 43.6501L30.5455 38.2844C29.9811 37.7393 29.2252 37.4376 28.4405 37.4444C27.6559 37.4512 26.9053 37.766 26.3504 38.3208C25.7956 38.8757 25.4808 39.6263 25.474 40.4109C25.4672 41.1956 25.7688 41.9515 26.314 42.5159L33.7955 49.9974C34.3567 50.5585 35.1177 50.8736 35.9112 50.8736C36.7048 50.8736 37.4658 50.5585 38.027 49.9974L51.4937 36.5307C52.0389 35.9663 52.3405 35.2104 52.3337 34.4257C52.3269 33.6411 52.0121 32.8905 51.4573 32.3356C50.9024 31.7808 50.1518 31.466 49.3672 31.4592C48.5825 31.4524 47.8266 31.754 47.2622 32.2992Z" fill="#FECB00"/>
</svg>
