<svg width="30" height="30" viewBox="0 0 30 30" fill="none" xmlns="http://www.w3.org/2000/svg">
<path d="M14.6504 1.5293C17.4649 1.53262 20.1631 2.65214 22.1533 4.64228C24.1434 6.63241 25.2629 9.33067 25.2663 12.1451C25.2696 14.4441 24.5186 16.6806 23.1286 18.5118L23.1276 18.5147M14.6504 1.5293C11.8359 1.53262 9.13767 2.65214 7.14753 4.64228C5.1574 6.63241 4.03788 9.33067 4.03456 12.1451C4.03119 14.4451 4.78247 16.6827 6.17317 18.5147C6.17317 18.5147 6.46269 18.8959 6.50998 18.9509L13.9891 27.7715L14.6504 26.9915M14.6504 1.5293L14.6492 2.53812C14.6496 2.53812 14.65 2.53812 14.6504 2.53812M14.6504 1.5293L14.6516 2.53812C14.6512 2.53812 14.6508 2.53812 14.6504 2.53812M14.6504 26.9915L15.3117 27.7715L22.7947 18.946M14.6504 26.9915L22.0187 18.3013M14.6504 26.9915L7.27944 18.2984L7.27946 18.2984L7.27499 18.2932C7.27502 18.2933 7.2743 18.2924 7.27288 18.2905C7.26151 18.2759 7.20517 18.2037 7.12462 18.0986L7.02162 17.9637L6.98869 17.9205L6.97963 17.9085L6.9773 17.9055L6.97672 17.9047L6.97669 17.9047M22.7947 18.946C22.8372 18.8949 23.1276 18.5147 23.1276 18.5147M22.7947 18.946L22.0252 18.2936L22.0187 18.3013M22.7947 18.946L22.0185 18.3017C22.018 18.3023 22.018 18.3022 22.0187 18.3013M23.1276 18.5147L23.1202 18.509L22.3818 17.9449L22.326 17.9022L22.326 17.9023L22.3259 17.9024L22.3258 17.9025L22.3252 17.9032L22.3228 17.9064L22.3137 17.9183L22.2805 17.9617L22.2241 18.0353M23.1276 18.5147L22.1707 18.1954L22.1716 18.1926L22.2241 18.0353M22.2241 18.0353L22.1771 18.0966C22.1384 18.1469 22.0991 18.1979 22.0673 18.239C22.0432 18.2701 22.0289 18.2884 22.0224 18.2967C22.0206 18.2989 22.0194 18.3005 22.0187 18.3013M22.2241 18.0353L22.2243 18.0345L22.3251 17.9018C23.5816 16.2465 24.2604 14.2248 24.2574 12.1466V12.1463C24.2544 9.599 23.2412 7.15686 21.4399 5.35562C19.639 3.55466 17.1973 2.54144 14.6504 2.53812M6.97669 17.9047C6.97664 17.9046 6.9766 17.9046 6.97656 17.9045M6.97669 17.9047L6.97659 17.9045L6.97656 17.9045M6.97669 17.9047L6.1733 18.5146L6.97656 17.9045M6.97656 17.9045C5.71945 16.2485 5.04034 14.2258 5.04338 12.1466L5.04338 12.1463C5.04639 9.599 6.05964 7.15686 7.86088 5.35562C9.66184 3.55466 12.1035 2.54144 14.6504 2.53812" stroke="#292929" stroke-width="2.01765"/>
<path d="M17.9155 11.8691C17.9155 13.4439 16.6389 14.7206 15.064 14.7206C13.4892 14.7206 12.2126 13.4439 12.2126 11.8691C12.2126 10.2943 13.4892 9.01762 15.064 9.01762C16.6389 9.01762 17.9155 10.2943 17.9155 11.8691Z" stroke="#FECB00" stroke-width="2.01765"/>
</svg>
