<svg width="20" height="16" viewBox="0 0 20 16" fill="none" xmlns="http://www.w3.org/2000/svg">
<path d="M12.8571 14.7024L7.14303 15.8641V1.34366L12.8571 0.182029V14.7024ZM5.71451 1.27106L0.886117 0.0223043C0.780698 -0.00488737 0.670562 -0.0072494 0.564109 0.0153984C0.457656 0.0380463 0.357696 0.0851057 0.271854 0.152988C0.183809 0.223595 0.113358 0.314283 0.0662043 0.417711C0.0190507 0.521139 -0.00348023 0.6344 0.000435588 0.748325V13.8167C-0.00431808 13.9825 0.0469575 14.145 0.145726 14.2771C0.244494 14.4092 0.384796 14.503 0.543273 14.5427L5.71451 15.835V1.27106ZM19.4569 1.47435L14.2856 0.182029V14.746L19.114 15.9948C19.1709 16.0017 19.2285 16.0017 19.2854 15.9948C19.4749 15.9948 19.6565 15.9183 19.7905 15.7821C19.9244 15.646 19.9997 15.4613 19.9997 15.2687V2.20037C20.0044 2.03452 19.9532 1.87202 19.8544 1.73992C19.7556 1.60782 19.6153 1.5141 19.4569 1.47435Z" fill="#FECB00"/>
</svg>
