<svg width="20" height="25" viewBox="0 0 20 25" fill="none" xmlns="http://www.w3.org/2000/svg">
<path d="M9.62501 0C7.07323 0.00301041 4.62682 1.01804 2.82243 2.82242C1.01805 4.62681 0.00302065 7.07322 1.024e-05 9.625C-0.00304604 11.7103 0.678118 13.7391 1.93901 15.4C1.93901 15.4 2.20151 15.7456 2.24439 15.7955L9.62501 24.5L17.0091 15.7911C17.0476 15.7448 17.311 15.4 17.311 15.4L17.3119 15.3974C18.5721 13.7372 19.253 11.7094 19.25 9.625C19.247 7.07322 18.232 4.62681 16.4276 2.82242C14.6232 1.01804 12.1768 0.00301041 9.62501 0ZM9.62501 13.125C8.93277 13.125 8.25609 12.9197 7.68051 12.5351C7.10494 12.1506 6.65634 11.6039 6.39143 10.9644C6.12652 10.3249 6.05721 9.62112 6.19226 8.94218C6.32731 8.26325 6.66065 7.63961 7.15014 7.15013C7.63962 6.66064 8.26326 6.3273 8.94219 6.19225C9.62113 6.0572 10.3249 6.12651 10.9644 6.39142C11.6039 6.65633 12.1506 7.10493 12.5352 7.6805C12.9197 8.25608 13.125 8.93277 13.125 9.625C13.1239 10.5529 12.7547 11.4425 12.0986 12.0986C11.4425 12.7547 10.5529 13.1238 9.62501 13.125Z" fill="#FECB00"/>
</svg>
