<svg width="23" height="23" viewBox="0 0 23 23" fill="none" xmlns="http://www.w3.org/2000/svg">
<g clip-path="url(#clip0_509_5750)">
<path d="M11.4635 2.26455H3.24085C2.73652 2.26455 2.32725 2.67387 2.32725 3.17815V19.6234C2.32725 20.1277 2.73657 20.537 3.24085 20.537H11.4635C11.9687 20.537 12.3771 20.9453 12.3771 21.4506C12.3771 21.9558 11.9687 22.3643 11.4635 22.3643H3.24085C1.72972 22.3643 0.5 21.1345 0.5 19.6234V3.17819C0.5 1.66707 1.72972 0.437347 3.24085 0.437347H11.4635C11.9687 0.437347 12.3771 0.845722 12.3771 1.35095C12.3771 1.85617 11.9687 2.26455 11.4635 2.26455Z" fill="#FECB00"/>
<path d="M22.2278 12.0511L16.6729 17.5329C16.3148 17.8874 15.7356 17.8828 15.3811 17.5237C15.0266 17.1647 15.0302 16.5864 15.3902 16.2319L19.3599 12.3143H8.72259C8.21737 12.3143 7.80899 11.9059 7.80899 11.4007C7.80899 10.8954 8.21737 10.487 8.72259 10.487H19.3599L15.3902 6.56944C15.0303 6.21495 15.0275 5.63663 15.3811 5.27758C15.466 5.19136 15.5673 5.12288 15.679 5.07614C15.7907 5.02941 15.9105 5.00534 16.0316 5.00533C16.2637 5.00533 16.4957 5.09303 16.6729 5.26847L22.2278 10.7502C22.3139 10.8353 22.3823 10.9365 22.429 11.0482C22.4758 11.1599 22.4999 11.2797 22.5 11.4007C22.5 11.6455 22.4023 11.8784 22.2278 12.0511Z" fill="#FECB00"/>
</g>
<defs>
<clipPath id="clip0_509_5750">
<rect width="22" height="22" fill="white" transform="matrix(1 0 0 -1 0.5 22.4014)"/>
</clipPath>
</defs>
</svg>
