<svg width="203" height="142" viewBox="0 0 203 142" fill="none" xmlns="http://www.w3.org/2000/svg">
<mask id="mask0_119_303" style="mask-type:luminance" maskUnits="userSpaceOnUse" x="0" y="0" width="203" height="142">
<path d="M0.551033 0.916016H202.181V141.084H0.551033V0.916016Z" fill="white"/>
</mask>
<g mask="url(#mask0_119_303)">
<path d="M55.8961 53.7848C53.53 50.826 49.697 49.3468 44.4012 49.3468C36.4037 49.3468 29.2596 52.8939 22.9736 59.9921L30.0264 65.1057C31.7998 63.1165 33.5985 61.5918 35.4255 60.5267C37.2533 59.462 39.3294 58.9271 41.6455 58.9271C43.8707 58.9271 45.4826 59.5198 46.4854 60.7049C47.4882 61.8859 47.7119 63.4979 47.1609 65.5284C46.5809 67.6582 45.574 69.436 44.1484 70.853C42.7188 72.2744 40.5477 73.9072 37.6302 75.7511L16.4513 89.6617L13.9943 98.6787H48.491L50.9485 89.6617H31.3565L41.4714 83.2762C46.2867 80.2014 49.9248 77.3134 52.3863 74.6155C54.8475 71.918 56.588 68.7024 57.6076 64.9607C58.83 60.4689 58.2622 56.7392 55.8961 53.7848Z" fill="black"/>
</g>
<mask id="mask1_119_303" style="mask-type:luminance" maskUnits="userSpaceOnUse" x="0" y="0" width="203" height="142">
<path d="M0.551033 0.916016H202.181V141.084H0.551033V0.916016Z" fill="white"/>
</mask>
<g mask="url(#mask1_119_303)">
<path d="M78.2066 80.0099H66.5667L82.5783 63.9695L78.2066 80.0099ZM96.8412 49.9139H84.9154L55.1381 80.0099L52.6434 89.1637H75.7123L74.27 94.4678C76.0105 94.2896 77.8048 94.1941 79.6486 94.1941C81.3392 94.1941 83.0298 94.2769 84.7081 94.451L86.1459 89.1637H90.9031L93.3978 80.0099H88.6406L96.8412 49.9139Z" fill="black"/>
</g>
<mask id="mask2_119_303" style="mask-type:luminance" maskUnits="userSpaceOnUse" x="0" y="0" width="203" height="142">
<path d="M0.551033 0.916016H202.181V141.084H0.551033V0.916016Z" fill="white"/>
</mask>
<g mask="url(#mask2_119_303)">
<path d="M122.002 39.9808L92.4611 95.8559C94.8395 96.4855 97.997 97.4884 101.03 98.9717L132.221 39.9808H122.002Z" fill="black"/>
</g>
<mask id="mask3_119_303" style="mask-type:luminance" maskUnits="userSpaceOnUse" x="0" y="0" width="203" height="142">
<path d="M0.551033 0.916016H202.181V141.084H0.551033V0.916016Z" fill="white"/>
</mask>
<g mask="url(#mask3_119_303)">
<path d="M129.577 50.1259L126.887 59.9921H149.745L120.394 98.6787H131.823L160.751 59.7103L163.361 50.1259H129.577Z" fill="black"/>
</g>
<mask id="mask4_119_303" style="mask-type:luminance" maskUnits="userSpaceOnUse" x="0" y="0" width="203" height="142">
<path d="M0.551033 0.916016H202.181V141.084H0.551033V0.916016Z" fill="white"/>
</mask>
<g mask="url(#mask4_119_303)">
<path d="M24.7358 136.543V122.137H16.149V117.324H39.1434V122.137H30.5852V136.543H24.7358Z" fill="white"/>
</g>
<mask id="mask5_119_303" style="mask-type:luminance" maskUnits="userSpaceOnUse" x="0" y="0" width="203" height="142">
<path d="M0.551033 0.916016H202.181V141.084H0.551033V0.916016Z" fill="white"/>
</mask>
<g mask="url(#mask5_119_303)">
<path d="M51.3246 129.08H59.7079L55.5539 121.01L51.3246 129.08ZM47.357 136.543H40.907L51.6202 117.324H59.5159L69.9995 136.543H63.5648L61.7553 133.057H49.2411L47.357 136.543Z" fill="white"/>
</g>
<mask id="mask6_119_303" style="mask-type:luminance" maskUnits="userSpaceOnUse" x="0" y="0" width="203" height="142">
<path d="M0.551033 0.916016H202.181V141.084H0.551033V0.916016Z" fill="white"/>
</mask>
<g mask="url(#mask6_119_303)">
<path d="M100.605 136.543H92.5908L86.1046 130.415L79.6576 136.543H71.7041L82.2209 126.747L72.2514 117.324H80.0557L86.2179 123.087L92.3783 117.324H99.9142L90.0655 126.686L100.605 136.543Z" fill="white"/>
</g>
<mask id="mask7_119_303" style="mask-type:luminance" maskUnits="userSpaceOnUse" x="0" y="0" width="203" height="142">
<path d="M0.551033 0.916016H202.181V141.084H0.551033V0.916016Z" fill="white"/>
</mask>
<g mask="url(#mask7_119_303)">
<path d="M103.89 117.324H109.739V136.543H103.89V117.324Z" fill="white"/>
<path d="M197.05 64.536C197.046 66.0235 196.905 67.5195 196.682 68.9864C196.4 70.8015 196.023 72.6039 195.583 74.3859C195.231 75.7987 194.742 77.1829 194.282 78.5671C193.818 79.9594 193.421 81.3805 192.811 82.7065C191.817 84.8657 190.764 87.0037 189.571 89.0548C188.439 91.0026 187.192 92.8919 185.821 94.6738C184.457 96.4516 182.961 98.1463 181.374 99.7292C179.613 101.487 177.728 103.131 175.817 104.731C173.199 106.923 170.298 108.726 167.248 110.234C164.837 111.423 162.317 112.397 159.802 113.358C158.355 113.913 156.839 114.307 155.326 114.668C153.681 115.057 152.007 115.347 150.337 115.641C148.729 115.923 147.118 116.147 145.435 116.408C146.451 119.897 148.037 123.2 148.87 126.73C148.779 126.801 148.688 126.867 148.601 126.933C148.261 126.78 147.872 126.693 147.59 126.469C145.858 125.102 144.171 123.681 142.439 122.313C140.247 120.589 138.014 118.915 135.817 117.191C134.143 115.878 132.477 114.556 130.857 113.18C129.846 112.318 129.945 111.659 131.019 110.864C132.966 109.422 134.885 107.95 136.824 106.5C138.382 105.331 139.953 104.184 141.511 103.024C143.019 101.901 144.52 100.765 146.023 99.6382C146.745 99.1037 147.465 98.5687 148.174 98.0427C148.696 98.3786 148.696 98.7927 148.505 99.2856C147.847 101.006 147.217 102.734 146.554 104.453C146.281 105.157 145.957 105.841 145.663 106.537C145.601 106.687 145.576 106.857 145.497 107.155C146.206 107.163 146.848 107.242 147.465 107.159C148.746 106.993 150.022 106.782 151.286 106.508C152.637 106.214 153.996 105.887 155.31 105.456C157.009 104.901 158.691 104.284 160.336 103.587C163.017 102.456 165.512 100.993 167.936 99.3769C170.522 97.6531 172.909 95.6971 175.005 93.4429C176.853 91.4544 178.569 89.3243 180.164 87.1278C181.35 85.4909 182.357 83.7011 183.26 81.8864C184.138 80.1209 184.818 78.2517 185.522 76.4079C186.024 75.0983 186.459 73.7559 186.848 72.4093C187.055 71.6925 187.105 70.9256 187.242 70.1883C187.457 69.036 187.702 67.8885 187.901 66.7321C187.979 66.2721 188 65.7957 188.004 65.3234C188.025 62.6177 188.096 59.9116 188.021 57.2055C187.988 55.9999 187.644 54.8021 187.445 53.5965C187.337 52.9498 187.234 52.3037 187.126 51.6573C186.732 49.3367 186.077 47.0947 185.145 44.9318C184.345 43.0753 183.728 41.1111 182.725 39.3746C181.296 36.9012 179.729 34.4728 177.952 32.2391C176.315 30.1757 174.433 28.2696 172.457 26.525C170.522 24.818 168.375 23.3343 166.241 21.8755C163.921 20.2927 161.397 19.0621 158.737 18.1421C156.694 17.4334 154.638 16.7497 152.571 16.1201C151.78 15.8796 150.93 15.8215 150.109 15.6805C148.729 15.4487 147.354 15.1832 145.97 14.9927C145.261 14.8973 144.536 14.9182 143.815 14.91C142.402 14.8932 140.981 14.8104 139.572 14.91C138.059 15.0177 136.559 15.2996 135.051 15.5109C134.359 15.606 133.663 15.6764 132.983 15.8256C131.015 16.2565 129.022 16.6088 127.107 17.2056C125.068 17.8397 123.055 18.5976 121.132 19.5177C118.886 20.5909 116.69 21.7969 114.585 23.1229C110.611 25.6299 107.092 28.7006 103.947 32.1977C101.73 34.6633 99.8244 37.3653 98.1711 40.2283C97.1515 41.998 96.3146 43.8835 95.515 45.7687H88.9509C89.3613 44.2563 89.8296 42.7603 90.3682 41.2934C90.9938 39.5946 91.8765 37.9867 92.6475 36.3457C93.9899 33.4905 95.6473 30.8139 97.5619 28.3192C98.8753 26.5995 100.276 24.9294 101.755 23.3507C103.173 21.8301 104.66 20.3549 106.264 19.0412C108.179 17.4707 110.176 15.9747 112.272 14.6695C114.738 13.1404 117.299 11.7439 119.918 10.4969C121.791 9.60593 123.813 9.01731 125.798 8.36679C127.269 7.88627 128.777 7.51311 130.277 7.12392C130.861 6.97033 131.466 6.8708 132.067 6.78803C133.311 6.61804 134.558 6.46482 135.805 6.31981C136.588 6.22847 137.371 6.14571 138.158 6.09613C139.779 6.00069 141.407 5.8102 143.019 5.88066C145.153 5.97982 147.279 6.28253 149.409 6.52298C150.557 6.65122 151.705 6.77573 152.836 6.9994C154.021 7.23537 155.185 7.58394 156.358 7.89857C157.295 8.15133 158.248 8.38358 159.159 8.71498C160.9 9.34872 162.665 9.94555 164.331 10.7497C166.871 11.972 169.403 13.244 171.815 14.7027C173.605 15.7801 175.291 17.077 176.858 18.4653C179.24 20.5786 181.598 22.7415 183.745 25.0953C185.73 27.2709 187.482 29.6743 188.933 32.2641C190.01 34.191 191.166 36.0803 192.111 38.0695C192.931 39.806 193.536 41.6457 194.183 43.4608C194.672 44.82 195.09 46.2079 195.501 47.592C195.679 48.193 195.753 48.8226 195.874 49.4399C196.188 51.0728 196.541 52.7011 196.797 54.3421C196.922 55.1213 196.851 55.9295 196.872 56.7209C196.938 59.3271 197.063 61.9295 197.05 64.536Z" fill="white"/>
<path d="M142.03 25.1914H141.727C140.974 25.1914 140.365 24.5819 140.365 23.83V17.9295C140.365 17.1776 140.974 16.568 141.727 16.568H142.03C142.782 16.568 143.392 17.1776 143.392 17.9295V23.83C143.392 24.5819 142.782 25.1914 142.03 25.1914Z" fill="#FECB00"/>
<path d="M129.205 26.9341L128.918 27.0351C128.209 27.2856 127.432 26.914 127.181 26.2049L125.216 20.6414C124.965 19.9324 125.337 19.1547 126.046 18.9042L126.332 18.8028C127.041 18.5527 127.819 18.9244 128.07 19.6334L130.035 25.1969C130.285 25.906 129.914 26.6836 129.205 26.9341Z" fill="black"/>
<path d="M117.786 33.2174L117.55 33.4083C116.965 33.8806 116.107 33.7893 115.635 33.204L111.929 28.6131C111.456 28.0278 111.548 27.1708 112.133 26.6984L112.369 26.5076C112.954 26.0352 113.812 26.1266 114.284 26.7119L117.99 31.3028C118.462 31.888 118.371 32.7451 117.786 33.2174Z" fill="#FECB00"/>
<path d="M108.847 42.3501L108.687 42.6088C108.293 43.2488 107.454 43.4483 106.814 43.0539L101.79 39.9594C101.15 39.5653 100.95 38.7265 101.345 38.0861L101.504 37.8277C101.898 37.1873 102.737 36.9882 103.377 37.3823L108.402 40.4768C109.041 40.8712 109.241 41.71 108.847 42.3501Z" fill="black"/>
<path d="M156.342 28.0924L156.058 27.9824C155.357 27.7095 155.011 26.92 155.284 26.2195L157.424 20.7212C157.697 20.0204 158.486 19.6737 159.187 19.9462L159.47 20.0566C160.171 20.3294 160.518 21.1183 160.245 21.8191L158.104 27.3177C157.831 28.0182 157.042 28.3653 156.342 28.0924Z" fill="black"/>
<path d="M168.625 35.9887L168.401 35.7833C167.847 35.2748 167.81 34.4137 168.319 33.8597L172.309 29.5126C172.817 28.9586 173.679 28.9217 174.233 29.4302L174.456 29.6356C175.01 30.1441 175.047 31.0052 174.539 31.5592L170.549 35.9063C170.041 36.4603 169.179 36.4972 168.625 35.9887Z" fill="#FECB00"/>
<path d="M176.273 48.2624L176.139 47.9899C175.808 47.3147 176.086 46.4991 176.76 46.1673L182.055 43.5637C182.73 43.232 183.546 43.5101 183.878 44.1848L184.012 44.4577C184.344 45.1324 184.066 45.9481 183.391 46.2803L178.096 48.8834C177.421 49.2152 176.605 48.9371 176.273 48.2624Z" fill="black"/>
<path d="M178.208 62.159L178.182 61.8563C178.117 61.1073 178.672 60.4479 179.422 60.3834L185.301 59.8786C186.05 59.8141 186.709 60.3696 186.774 61.1185L186.8 61.4212C186.864 62.1705 186.309 62.83 185.56 62.8941L179.681 63.3993C178.932 63.4634 178.272 62.9083 178.208 62.159Z" fill="#FECB00"/>
<path d="M175.517 75.447L175.603 75.1555C175.815 74.4342 176.572 74.0207 177.293 74.2328L182.955 75.8955C183.676 76.1072 184.089 76.8636 183.877 77.5853L183.792 77.8769C183.58 78.5982 182.823 79.0113 182.102 78.7995L176.44 77.1369C175.719 76.9251 175.306 76.1684 175.517 75.447Z" fill="black"/>
<path d="M167.922 85.865L168.107 85.6246C168.566 85.0293 169.421 84.9189 170.017 85.3778L174.689 88.9812C175.285 89.4405 175.395 90.2953 174.936 90.8906L174.75 91.1314C174.291 91.7268 173.437 91.8375 172.841 91.3782L168.168 87.7748C167.573 87.3156 167.463 86.4608 167.922 85.865Z" fill="#FECB00"/>
<path d="M158.121 93.4713L158.381 93.3147C159.025 92.9263 159.862 93.1336 160.25 93.7774L163.297 98.8305C163.685 99.4747 163.478 100.311 162.834 100.7L162.574 100.857C161.93 101.245 161.093 101.037 160.705 100.393L157.658 95.3405C157.27 94.6963 157.477 93.8598 158.121 93.4713Z" fill="black"/>
<path d="M5.90974 130.121C5.90974 130.121 2.47858 112.07 22.1704 109.219C34.9672 108.092 57.3774 109.385 71.7983 110.081C86.2193 110.777 94.6727 109.459 97.3583 108.775C97.3583 108.775 89.6009 113.641 49.5205 112.408C9.44042 111.175 9.04266 116.745 5.90974 130.121Z" fill="black"/>
<path d="M47.5644 106.501C47.5644 106.501 65.5988 92.9758 88.2081 97.0198C88.2081 97.0198 96.9273 98.4785 103.126 102.523C109.325 106.568 118.475 107.264 124.111 106.899C129.747 106.534 129.382 107.131 128.686 108.524C127.99 109.916 126.703 113.231 129.07 116.612C131.438 119.994 129.819 127.221 129.07 128.481H119.802C119.802 128.481 119.685 116.347 107.204 115.254C107.204 115.254 113.221 114.508 118.045 117.392L126.25 117.259C126.25 117.259 123.631 114.74 124.327 110.927C124.327 110.927 116.553 108.59 109.342 110.181C102.132 111.773 93.678 116.646 64.19 114.955C64.19 114.955 91.4569 114.657 104.784 106.568C104.784 106.568 87.5781 91.7821 47.5644 106.501Z" fill="white"/>
</g>
</svg>
