<svg width="45" height="45" viewBox="0 0 45 45" fill="none" xmlns="http://www.w3.org/2000/svg">
<path d="M22.0785 9.43145C23.8488 9.44004 25.284 8.00488 25.284 6.22598C25.284 4.45566 23.8488 3.02051 22.0785 3.02051C20.3082 3.02051 18.873 4.45566 18.873 6.22598C18.873 7.99629 20.3082 9.43145 22.0785 9.43145Z" fill="black"/>
<path d="M25.2926 10.1533H22.0785H18.8644C16.441 10.1533 14.8597 12.2846 14.8597 14.3127V24.0752C14.8597 25.9658 17.5238 25.9658 17.5238 24.0752V15.0518H18.0394V39.5955C18.0394 42.208 21.6488 42.1221 21.7347 39.5955V25.4502H22.3363H22.4222V39.6041C22.5683 42.2854 26.1176 42.0275 26.1176 39.5955V15.0518H26.5472V24.0752C26.5472 25.9658 29.2972 25.9658 29.2972 24.0752V14.3127C29.2972 12.2932 27.7074 10.1533 25.2926 10.1533Z" fill="black"/>
</svg>
