<svg width="25" height="25" viewBox="0 0 25 25" fill="none" xmlns="http://www.w3.org/2000/svg">
<path d="M0.21347 14.9557C0.214466 15.8514 0.570744 16.7102 1.20414 17.3436C1.83753 17.977 2.69631 18.3333 3.59206 18.3343H5.03178C5.28124 18.3343 5.52048 18.4334 5.69688 18.6098C5.87327 18.7862 5.97237 19.0254 5.97237 19.2749V23.594C5.96868 23.694 5.99631 23.7927 6.05139 23.8762C6.10648 23.9597 6.18627 24.024 6.27963 24.0599C6.37074 24.0977 6.47138 24.1059 6.56742 24.0835C6.66346 24.0612 6.75008 24.0093 6.81514 23.9352L12.1708 18.6083C12.3471 18.433 12.5856 18.3345 12.8343 18.3343H20.8675C21.7633 18.3333 22.622 17.977 23.2554 17.3436C23.8888 16.7102 24.2451 15.8514 24.2461 14.9557V3.43914C24.2461 2.53868 23.8937 1.69153 23.2547 1.05256C22.9422 0.737569 22.5702 0.487704 22.1605 0.317426C21.7507 0.147148 21.3112 0.0598386 20.8675 0.0605512H3.59206C2.69631 0.061547 1.83753 0.417824 1.20414 1.05122C0.570744 1.68461 0.214466 2.54339 0.21347 3.43914V14.9557Z" fill="#FECB00"/>
<path d="M18.0527 7.8252C18.8178 7.8252 19.4404 8.44849 19.4404 9.21288C19.4404 9.97726 18.8171 10.6006 18.0527 10.6006C17.2871 10.6006 16.6638 9.97726 16.6638 9.21288C16.6638 8.44849 17.2871 7.8252 18.0527 7.8252ZM12.2305 7.8252C12.9955 7.8252 13.6182 8.44849 13.6182 9.21288C13.6182 9.97726 12.9949 10.6006 12.2305 10.6006C11.4649 10.6006 10.8416 9.97726 10.8416 9.21288C10.8416 8.44849 11.4643 7.8252 12.2305 7.8252ZM6.40766 7.8252C7.17267 7.8252 7.79534 8.44849 7.79534 9.21288C7.79534 9.97726 7.17204 10.6006 6.40766 10.6006C5.64202 10.6006 5.01873 9.97726 5.01873 9.21288C5.01873 8.44849 5.64202 7.8252 6.40766 7.8252Z" fill="white"/>
</svg>
