<svg width="23" height="23" viewBox="0 0 23 23" fill="none" xmlns="http://www.w3.org/2000/svg">
<path d="M11 20.5921C10.288 20.5921 9.60515 20.3093 9.10168 19.8058C8.59821 19.3023 8.31537 18.6195 8.31537 17.9075C8.31537 17.7295 8.38608 17.5588 8.51195 17.4329C8.63781 17.307 8.80853 17.2363 8.98653 17.2363H13.0135C13.1915 17.2363 13.3622 17.307 13.4881 17.4329C13.6139 17.5588 13.6846 17.7295 13.6846 17.9075C13.6846 18.6195 13.4018 19.3023 12.8983 19.8058C12.3949 20.3093 11.712 20.5921 11 20.5921ZM9.8389 18.5786C9.9569 18.7821 10.1263 18.9509 10.33 19.0683C10.5338 19.1856 10.7648 19.2474 11 19.2474C11.2352 19.2474 11.4662 19.1856 11.67 19.0683C11.8738 18.9509 12.0431 18.7821 12.1611 18.5786H9.8389Z" fill="#FECB00"/>
<path d="M12.3423 5.28425H9.6577C9.4797 5.28425 9.30899 5.21354 9.18312 5.08767C9.05725 4.9618 8.98654 4.79109 8.98654 4.61309C8.98654 4.07908 9.19868 3.56694 9.57628 3.18934C9.95388 2.81174 10.466 2.59961 11 2.59961C11.534 2.59961 12.0462 2.81174 12.4238 3.18934C12.8014 3.56694 13.0135 4.07908 13.0135 4.61309C13.0135 4.79109 12.9428 4.9618 12.8169 5.08767C12.6911 5.21354 12.5203 5.28425 12.3423 5.28425Z" fill="#FECB00"/>
<path d="M18.3828 18.5787H3.61727C3.43926 18.5787 3.26855 18.508 3.14269 18.3821C3.01682 18.2563 2.94611 18.0856 2.94611 17.9076C2.94552 17.1496 3.12833 16.4027 3.47894 15.7307C3.82956 15.0587 4.33756 14.4815 4.95959 14.0484V10.5248C4.95955 8.92974 5.59042 7.3994 6.71453 6.26775C7.83863 5.1361 9.36472 4.49501 10.9598 4.48438H11.0336C12.6356 4.48438 14.172 5.12078 15.3048 6.25358C16.4376 7.38638 17.074 8.92279 17.074 10.5248V14.0484C17.6898 14.4852 18.1913 15.064 18.536 15.7358C18.8806 16.4076 19.0583 17.1525 19.0539 17.9076C19.0539 18.0856 18.9832 18.2563 18.8574 18.3821C18.7315 18.508 18.5608 18.5787 18.3828 18.5787ZM4.35554 17.2364H17.6445C17.5494 16.7711 17.3567 16.3313 17.079 15.946C16.8014 15.5607 16.4451 15.2388 16.0337 15.0014C15.9313 14.9423 15.8463 14.8572 15.7874 14.7546C15.7285 14.6521 15.6977 14.5358 15.6981 14.4175V10.5248C15.6981 9.27879 15.2032 8.08381 14.3221 7.20274C13.441 6.32167 12.246 5.82669 11 5.82669C9.754 5.82669 8.55902 6.32167 7.67795 7.20274C6.79688 8.08381 6.3019 9.27879 6.3019 10.5248V14.4175C6.30237 14.5358 6.27158 14.6521 6.21266 14.7546C6.15372 14.8572 6.06875 14.9423 5.96633 15.0014C5.55498 15.2388 5.19869 15.5607 4.92101 15.946C4.64334 16.3313 4.4506 16.7711 4.35554 17.2364Z" fill="#FECB00"/>
</svg>
