<svg width="23" height="23" viewBox="0 0 23 23" fill="none" xmlns="http://www.w3.org/2000/svg">
<g clip-path="url(#clip0_474_9785)">
<path d="M11.4972 22.4355C10.1299 22.4355 8.81858 21.9756 7.85174 21.1569C6.8849 20.3382 6.34174 19.2278 6.34174 18.0699C6.34174 17.7805 6.47753 17.5029 6.71924 17.2982C6.96095 17.0935 7.28877 16.9785 7.6306 16.9785H15.3638C15.7056 16.9785 16.0335 17.0935 16.2752 17.2982C16.5169 17.5029 16.6527 17.7805 16.6527 18.0699C16.6527 19.2278 16.1095 20.3382 15.1427 21.1569C14.1758 21.9756 12.8645 22.4355 11.4972 22.4355ZM9.26747 19.1613C9.49406 19.4921 9.8193 19.7667 10.2106 19.9575C10.6019 20.1484 11.0456 20.2489 11.4972 20.2489C11.9488 20.2489 12.3925 20.1484 12.7838 19.9575C13.1751 19.7667 13.5003 19.4921 13.7269 19.1613H9.26747Z" fill="#FECB00"/>
<path d="M19.3356 18.651H3.65869C3.4697 18.651 3.28846 18.5652 3.15482 18.4124C3.02118 18.2596 2.94611 18.0523 2.94611 17.8363C2.94548 16.9161 3.13958 16.0094 3.51183 15.1937C3.88409 14.3779 4.42344 13.6772 5.08387 13.1514V8.87387C5.08383 6.93752 5.75364 5.07975 6.94713 3.70597C8.14063 2.33219 9.76091 1.55392 11.4544 1.54102H11.5328C13.2337 1.54102 14.8649 2.31358 16.0677 3.68876C17.2704 5.06394 17.9461 6.92908 17.9461 8.87387V13.1514C18.5999 13.6817 19.1323 14.3843 19.4983 15.1998C19.8642 16.0154 20.0528 16.9197 20.0482 17.8363C20.0482 18.0523 19.9731 18.2596 19.8395 18.4124C19.7058 18.5652 19.5246 18.651 19.3356 18.651ZM4.44254 17.0215H18.5518C18.4508 16.4566 18.2462 15.9227 17.9514 15.455C17.6566 14.9873 17.2783 14.5965 16.8416 14.3083C16.7328 14.2366 16.6426 14.1332 16.58 14.0087C16.5175 13.8842 16.4848 13.7431 16.4853 13.5995V8.87387C16.4853 7.36126 15.9597 5.91059 15.0243 4.84101C14.0888 3.77143 12.8201 3.17054 11.4972 3.17054C10.1742 3.17054 8.90548 3.77143 7.97003 4.84101C7.03457 5.91059 6.50904 7.36126 6.50904 8.87387V13.5995C6.50954 13.7431 6.47685 13.8842 6.41428 14.0087C6.35172 14.1332 6.26149 14.2366 6.15275 14.3083C5.71601 14.5965 5.33773 14.9873 5.04292 15.455C4.7481 15.9227 4.54347 16.4566 4.44254 17.0215Z" fill="#FECB00"/>
<path d="M11.5 5.60449L11.5 10.3594" stroke="#FECB00" stroke-width="1.5" stroke-linecap="round"/>
</g>
<defs>
<clipPath id="clip0_474_9785">
<rect width="22" height="22" fill="white" transform="translate(0.5 0.435547)"/>
</clipPath>
</defs>
</svg>
