<svg width="54" height="42" viewBox="0 0 54 42" fill="none" xmlns="http://www.w3.org/2000/svg">
<path d="M49.5 17.25H51.375C51.8723 17.25 52.3492 17.0525 52.7008 16.7008C53.0525 16.3492 53.25 15.8723 53.25 15.375C53.25 14.8777 53.0525 14.4008 52.7008 14.0492C52.3492 13.6975 51.8723 13.5 51.375 13.5H46.8112L43.3706 7.76625C42.7043 6.65568 41.7617 5.73658 40.6346 5.09847C39.5076 4.46037 38.2345 4.12499 36.9394 4.125H34.2881L33.8925 2.94C33.6445 2.19282 33.1674 1.5428 32.5288 1.08233C31.8903 0.621853 31.1229 0.374353 30.3356 0.375001H23.6625C22.0463 0.375001 20.6156 1.40625 20.1075 2.93813L19.7119 4.125H17.0588C15.7636 4.12499 14.4905 4.46037 13.3635 5.09847C12.2364 5.73658 11.2939 6.65568 10.6275 7.76625L7.18688 13.5H2.625C2.12772 13.5 1.65081 13.6975 1.29917 14.0492C0.947544 14.4008 0.75 14.8777 0.75 15.375C0.75 15.8723 0.947544 16.3492 1.29917 16.7008C1.65081 17.0525 2.12772 17.25 2.625 17.25H4.5L2.25 20.2519C1.27633 21.5501 0.75 23.1291 0.75 24.7519V32.2519C0.75 33.2464 1.14509 34.2003 1.84835 34.9035C2.55161 35.6068 3.50544 36.0019 4.5 36.0019V37.8769C4.5 38.8714 4.89509 39.8253 5.59835 40.5285C6.30161 41.2318 7.25544 41.6269 8.25 41.6269H12C12.9946 41.6269 13.9484 41.2318 14.6516 40.5285C15.3549 39.8253 15.75 38.8714 15.75 37.8769V36.0019H38.25V37.8769C38.25 38.8714 38.6451 39.8253 39.3484 40.5285C40.0516 41.2318 41.0054 41.6269 42 41.6269H45.75C46.7446 41.6269 47.6984 41.2318 48.4016 40.5285C49.1049 39.8253 49.5 38.8714 49.5 37.8769V36.0019C50.4946 36.0019 51.4484 35.6068 52.1516 34.9035C52.8549 34.2003 53.25 33.2464 53.25 32.2519V24.7519C53.25 23.13 52.7231 21.5494 51.75 20.2519L49.5 17.25ZM9.1875 30.375C8.81803 30.3749 8.45221 30.302 8.11092 30.1605C7.76962 30.019 7.45954 29.8116 7.19837 29.5503C6.93721 29.289 6.73008 28.9787 6.5888 28.6374C6.44753 28.296 6.37488 27.9301 6.375 27.5606C6.37512 27.1912 6.44802 26.8253 6.58952 26.484C6.73102 26.1427 6.93836 25.8327 7.1997 25.5715C7.46104 25.3103 7.77126 25.1032 8.11265 24.9619C8.45404 24.8207 8.81991 24.748 9.18937 24.7481C9.93554 24.7484 10.6511 25.045 11.1785 25.5728C11.7059 26.1006 12.0021 26.8163 12.0019 27.5625C12.0016 28.3087 11.705 29.0242 11.1772 29.5516C10.6494 30.0791 9.93367 30.3752 9.1875 30.375ZM41.9194 15.675C40.3792 16.702 38.5694 17.25 36.7181 17.25H17.28C15.4296 17.25 13.6206 16.7027 12.0806 15.6769L10.7775 14.8088L13.845 9.6975C14.1782 9.14221 14.6495 8.68267 15.213 8.36361C15.7765 8.04456 16.4131 7.87687 17.0606 7.87688H36.9412C37.5888 7.87687 38.2254 8.04456 38.7889 8.36361C39.3524 8.68267 39.8237 9.14221 40.1569 9.6975L43.2244 14.8088L41.9212 15.6769L41.9194 15.675ZM44.8125 30.375C44.443 30.3749 44.0772 30.302 43.7359 30.1605C43.3946 30.019 43.0845 29.8116 42.8234 29.5503C42.5622 29.289 42.3551 28.9787 42.2138 28.6374C42.0725 28.296 41.9999 27.9301 42 27.5606C42.0001 27.1912 42.073 26.8253 42.2145 26.484C42.356 26.1427 42.5634 25.8327 42.8247 25.5715C43.086 25.3103 43.3963 25.1032 43.7376 24.9619C44.079 24.8207 44.4449 24.748 44.8144 24.7481C45.5605 24.7484 46.2761 25.045 46.8035 25.5728C47.3309 26.1006 47.6271 26.8163 47.6269 27.5625C47.6266 28.3087 47.33 29.0242 46.8022 29.5516C46.2744 30.0791 45.5587 30.3752 44.8125 30.375Z" fill="#FECB00"/>
</svg>
