<svg width="23" height="23" viewBox="0 0 23 23" fill="none" xmlns="http://www.w3.org/2000/svg">
<g clip-path="url(#clip0_488_10211)">
<path d="M20.5884 2.30078H2.92199C2.46613 2.30078 2.02895 2.51273 1.70661 2.89C1.38427 3.26726 1.20319 3.77895 1.20319 4.31249L1.20319 17.0567C1.20319 17.3209 1.24764 17.5825 1.33402 17.8266C1.4204 18.0707 1.54701 18.2924 1.70661 18.4792C1.86622 18.666 2.0557 18.8142 2.26423 18.9153C2.47277 19.0164 2.69627 19.0684 2.92199 19.0684H20.5884C21.0443 19.0684 21.4815 18.8565 21.8038 18.4792C22.1262 18.102 22.3072 17.5903 22.3072 17.0567V4.31249C22.3072 3.77895 22.1262 3.26726 21.8038 2.89C21.4815 2.51273 21.0443 2.30078 20.5884 2.30078ZM2.08917 6.16865H21.4124V8.61587H2.08917V6.16865ZM2.92199 3.33774H20.5884C20.8093 3.33774 21.0211 3.44044 21.1773 3.62324C21.3335 3.80604 21.4213 4.05397 21.4213 4.31249V5.13168H2.08917V4.31249C2.08917 4.05397 2.17691 3.80604 2.33309 3.62324C2.48928 3.44044 2.70111 3.33774 2.92199 3.33774ZM20.5884 18.0315H2.92199C2.70111 18.0315 2.48928 17.9288 2.33309 17.746C2.17691 17.5632 2.08917 17.3153 2.08917 17.0567V9.65283H21.4124V17.0464C21.4136 17.1744 21.3932 17.3014 21.3524 17.4202C21.3116 17.539 21.2513 17.6472 21.1748 17.7387C21.0982 17.8301 21.0071 17.9031 20.9065 17.9533C20.8059 18.0036 20.6978 18.0301 20.5884 18.0315Z" fill="#FECB00" stroke="#FECB00" stroke-width="0.5"/>
<path d="M18.4178 13.5194C18.1764 13.5194 17.9379 13.5698 17.7179 13.6673C17.4979 13.7648 17.3016 13.9071 17.142 14.0848C16.9104 13.8279 16.6045 13.6464 16.2652 13.5645C15.9258 13.4826 15.5691 13.5042 15.2426 13.6264C14.9161 13.7485 14.6352 13.9655 14.4375 14.2484C14.2398 14.5312 14.1347 14.8665 14.136 15.2096C14.1374 15.5526 14.2452 15.8871 14.4452 16.1684C14.6451 16.4497 14.9277 16.6645 15.2552 16.7842C15.5827 16.9039 15.9395 16.9227 16.2782 16.8382C16.6169 16.7537 16.9213 16.5699 17.1508 16.3113C17.3412 16.5193 17.5816 16.6773 17.85 16.771C18.1185 16.8646 18.4065 16.8909 18.688 16.8476C18.9694 16.8042 19.2353 16.6924 19.4616 16.5225C19.6879 16.3526 19.8673 16.1299 19.9836 15.8746C20.1 15.6193 20.1494 15.3395 20.1276 15.0606C20.1058 14.7818 20.0133 14.5127 19.8586 14.2779C19.7039 14.043 19.4919 13.8498 19.2418 13.7159C18.9917 13.5819 18.7115 13.5114 18.4266 13.5107L18.4178 13.5194ZM15.875 16.0156C15.7103 16.0156 15.5493 15.9676 15.4123 15.8778C15.2754 15.7879 15.1686 15.6603 15.1056 15.5109C15.0425 15.3615 15.0261 15.1971 15.0582 15.0385C15.0903 14.8799 15.1696 14.7343 15.2861 14.6199C15.4026 14.5056 15.551 14.4277 15.7125 14.3962C15.8741 14.3646 16.0415 14.3808 16.1937 14.4427C16.3459 14.5046 16.476 14.6094 16.5675 14.7438C16.659 14.8783 16.7078 15.0363 16.7078 15.198C16.7078 15.4148 16.6201 15.6228 16.4639 15.7761C16.3077 15.9294 16.0959 16.0156 15.875 16.0156ZM18.4178 16.0156C18.2531 16.0156 18.092 15.9676 17.9551 15.8778C17.8181 15.7879 17.7114 15.6603 17.6483 15.5109C17.5853 15.3615 17.5688 15.1971 17.601 15.0385C17.6331 14.8799 17.7124 14.7343 17.8289 14.6199C17.9454 14.5056 18.0937 14.4277 18.2553 14.3962C18.4168 14.3646 18.5843 14.3808 18.7365 14.4427C18.8887 14.5046 19.0187 14.6094 19.1102 14.7438C19.2017 14.8783 19.2506 15.0363 19.2506 15.198C19.2506 15.4148 19.1629 15.6228 19.0067 15.7761C18.8505 15.9294 18.6386 16.0156 18.4178 16.0156Z" fill="#FECB00"/>
</g>
<defs>
<clipPath id="clip0_488_10211">
<rect width="22" height="22" fill="white" transform="translate(0.5 0.907227)"/>
</clipPath>
</defs>
</svg>
