<svg width="24" height="24" viewBox="0 0 24 24" fill="none" xmlns="http://www.w3.org/2000/svg">
<g clip-path="url(#clip0_284_1360)">
<path d="M14.5819 16.4736C14.9384 16.4736 15.2274 16.1846 15.2274 15.8281C15.2274 15.4716 14.9384 15.1826 14.5819 15.1826C14.2254 15.1826 13.9364 15.4716 13.9364 15.8281C13.9364 16.1846 14.2254 16.4736 14.5819 16.4736Z" fill="#FECB00"/>
<path d="M9.41806 8.72749C9.77455 8.72749 10.0635 8.43849 10.0635 8.082C10.0635 7.72552 9.77455 7.43652 9.41806 7.43652C9.06157 7.43652 8.77258 7.72552 8.77258 8.082C8.77258 8.43849 9.06157 8.72749 9.41806 8.72749Z" fill="#FECB00"/>
<path d="M22.0087 10.4987C21.2763 10.0196 21.0014 8.99275 21.3954 8.21047C21.7402 7.52781 21.7767 6.94158 21.5032 6.46819C21.2296 5.99479 20.7039 5.7332 19.9399 5.68969C19.0656 5.64051 18.3143 4.88912 18.2651 4.0142C18.2216 3.25085 17.96 2.72513 17.4866 2.45157C17.0132 2.17991 16.427 2.2152 15.7443 2.55937C14.962 2.95018 13.9345 2.67852 13.4555 1.94603C12.6171 0.666428 11.3829 0.666428 10.5445 1.94603C10.0649 2.67788 9.03864 2.95208 8.25576 2.55937C7.57245 2.2152 6.98623 2.17991 6.51347 2.45157C6.04008 2.72513 5.77849 3.25085 5.73498 4.01484C5.6858 4.88912 4.93441 5.64051 4.05948 5.68969C3.29614 5.7332 2.77041 5.99479 2.49686 6.46819C2.2233 6.94158 2.25984 7.52781 2.60465 8.21047C2.99861 8.99275 2.72381 10.0196 1.99067 10.4993C1.35143 10.9191 0.983765 11.4083 0.983765 11.9548C0.983765 12.5013 1.35143 12.9911 1.99123 13.4103C2.72368 13.8899 2.99853 14.9168 2.60457 15.699C2.25975 16.3817 2.22322 16.9679 2.49677 17.4413C2.77033 17.9147 3.29605 18.1763 4.06004 18.2198C4.93433 18.269 5.68571 19.0204 5.7349 19.8953C5.7784 20.6587 6.03999 21.1844 6.51339 21.4579C6.98743 21.7309 7.57237 21.6943 8.25567 21.3501C9.03795 20.9568 10.0641 21.2304 10.5445 21.9641C10.9643 22.6033 11.4534 23.014 11.9999 23.014C12.5464 23.014 13.0356 22.6033 13.4561 21.9635C13.9345 21.2297 14.9595 20.9536 15.7442 21.3501C16.4269 21.6943 17.015 21.7309 17.4865 21.4579C17.9599 21.1844 18.2215 20.6587 18.265 19.8947C18.3142 19.0204 19.0656 18.269 19.9405 18.2198C20.7039 18.1763 21.2296 17.9147 21.5031 17.4413C21.7767 16.9679 21.7402 16.3817 21.3954 15.699C21.0014 14.9168 21.2762 13.8899 22.0087 13.4103C22.6485 12.9911 23.0162 12.5013 23.0162 11.9548C23.0162 11.4083 22.6485 10.9191 22.0087 10.4987ZM9.41806 6.14545C10.4859 6.14545 11.3545 7.01409 11.3545 8.08189C11.3545 9.14969 10.4859 10.0183 9.41806 10.0183C8.35026 10.0183 7.48161 9.14969 7.48161 8.08189C7.48161 7.01409 8.35026 6.14545 9.41806 6.14545ZM8.64335 17.5057L7.61084 16.7316L15.3566 6.4039L16.3891 7.17796L8.64335 17.5057ZM14.5819 17.7641C13.5141 17.7641 12.6455 16.8955 12.6455 15.8277C12.6455 14.7599 13.5141 13.8912 14.5819 13.8912C15.6497 13.8912 16.5184 14.7599 16.5184 15.8277C16.5184 16.8955 15.6497 17.7641 14.5819 17.7641Z" fill="#FECB00"/>
</g>
<defs>
<clipPath id="clip0_284_1360">
<rect width="24" height="24" fill="white"/>
</clipPath>
</defs>
</svg>
