<svg width="27" height="26" viewBox="0 0 27 26" fill="none" xmlns="http://www.w3.org/2000/svg">
<path d="M12.1978 11.9629C10.9275 11.9614 9.67076 12.2247 8.50785 12.736C7.34494 13.2474 6.30138 13.9955 5.44375 14.9326C3.92984 16.5821 4.30065 19.206 6.20681 20.3804C8.00914 21.4872 10.0828 22.073 12.1978 22.073C14.3129 22.073 16.3865 21.4872 18.1889 20.3804C20.095 19.206 20.4658 16.5821 18.9519 14.9326C18.0943 13.9955 17.0507 13.2474 15.8878 12.736C14.7249 12.2247 13.4682 11.9614 12.1978 11.9629Z" fill="#7A797A"/>
<path d="M16.6839 6.14973C16.6838 7.03696 16.4206 7.90423 15.9276 8.64188C15.4346 9.37953 14.7339 9.95442 13.9142 10.2939C13.0944 10.6333 12.1925 10.7221 11.3223 10.5489C10.4521 10.3757 9.65286 9.94844 9.02553 9.32104C8.39821 8.69363 7.97101 7.89429 7.79796 7.0241C7.62492 6.15391 7.71379 5.25194 8.05335 4.43226C8.3929 3.61258 8.96789 2.91199 9.7056 2.41908C10.4433 1.92617 11.3106 1.66309 12.1979 1.66309C12.787 1.66313 13.3704 1.77921 13.9147 2.0047C14.459 2.2302 14.9535 2.56069 15.3701 2.97732C15.7867 3.39394 16.1171 3.88853 16.3425 4.43286C16.5679 4.97718 16.6839 5.56057 16.6839 6.14973Z" fill="#C8C8C8"/>
</svg>
