<svg width="26" height="26" viewBox="0 0 26 26" fill="none" xmlns="http://www.w3.org/2000/svg">
<path d="M12.9999 12.1025C11.6121 12.1009 10.2391 12.3886 8.96867 12.9472C7.69823 13.5058 6.55817 14.3231 5.62124 15.3469C3.96733 17.1489 4.37243 20.0155 6.45486 21.2985C8.42386 22.5075 10.6893 23.1476 12.9999 23.1476C15.3105 23.1476 17.5759 22.5075 19.5449 21.2985C21.6274 20.0155 22.0325 17.1489 20.3785 15.3469C19.4416 14.3231 18.3016 13.5058 17.0311 12.9472C15.7607 12.3886 14.3877 12.1009 12.9999 12.1025Z" fill="#FECB00"/>
<path d="M17.9009 5.75212C17.9008 6.72139 17.6132 7.66886 17.0746 8.47472C16.536 9.28058 15.7706 9.90864 14.875 10.2795C13.9795 10.6503 12.9941 10.7473 12.0435 10.5581C11.0929 10.3689 10.2197 9.90211 9.53433 9.21668C8.84899 8.53126 8.38229 7.658 8.19324 6.70734C8.0042 5.75668 8.10129 4.77131 8.47224 3.87583C8.8432 2.98035 9.47136 2.21498 10.2773 1.67649C11.0832 1.138 12.0307 0.850586 13 0.850586C13.6436 0.850629 14.281 0.977444 14.8756 1.22379C15.4702 1.47014 16.0105 1.8312 16.4656 2.28635C16.9207 2.7415 17.2817 3.28182 17.5279 3.87648C17.7742 4.47114 17.9009 5.10848 17.9009 5.75212Z" fill="#FECB00"/>
</svg>
