<svg width="40" height="40" viewBox="0 0 40 40" fill="none" xmlns="http://www.w3.org/2000/svg">
<circle cx="20" cy="20" r="20" fill="#F6F6F6"/>
<path d="M28.8149 24.6715L25.9804 22.6909C25.7448 22.5264 25.4791 22.41 25.1985 22.3481C24.9179 22.2863 24.6279 22.2804 24.345 22.3307C24.0621 22.381 23.7919 22.4865 23.5498 22.6413C23.3077 22.796 23.0985 22.9969 22.934 23.2326L22.276 24.1758C21.1735 23.4364 19.9429 22.4039 18.7699 21.2306C17.5974 20.0581 16.5649 18.8274 15.8255 17.7249L16.7679 17.0669C17.0044 16.9033 17.206 16.6943 17.3611 16.4521C17.5161 16.2098 17.6214 15.9392 17.6709 15.6559C17.7216 15.3729 17.7158 15.0827 17.6537 14.8019C17.5917 14.5212 17.4747 14.2555 17.3095 14.0201L15.3299 11.186C14.9155 10.5936 14.247 10.2393 13.5427 10.2393C13.2996 10.2392 13.0584 10.2823 12.8304 10.3666C12.5727 10.4612 12.3256 10.5826 12.0932 10.7288L11.7017 11.0044C11.6048 11.0807 11.5127 11.163 11.426 11.2508C10.9483 11.7276 10.6097 12.3323 10.4185 13.0463C9.60254 16.1044 11.6234 20.7292 15.4475 24.5529C18.6588 27.7642 22.5162 29.7592 25.5149 29.7592C26.0289 29.7592 26.5128 29.6997 26.9542 29.5816C27.6687 29.3908 28.2729 29.0522 28.7502 28.5744C28.8372 28.4874 28.9199 28.3964 29.0087 28.2813L29.2844 27.888C29.4247 27.6613 29.5417 27.4209 29.6335 27.1705C29.9673 26.2693 29.6304 25.2411 28.8149 24.6711V24.6715Z" fill="#FECB00"/>
</svg>
