<svg width="23" height="23" viewBox="0 0 23 23" fill="none" xmlns="http://www.w3.org/2000/svg">
<g clip-path="url(#clip0_488_10220)">
<path d="M19.8457 2.14829V1.62736C19.8446 1.22768 19.6854 0.844671 19.4028 0.562054C19.1201 0.279437 18.7371 0.120196 18.3374 0.119141C17.9376 0.119577 17.5542 0.278618 17.2715 0.561369C16.9887 0.844121 16.8297 1.22749 16.8292 1.62736V2.12382H15.2857V1.62736C15.2857 1.22776 15.1271 0.844497 14.8448 0.561719C14.5625 0.27894 14.1795 0.119764 13.7799 0.119141C13.38 0.119639 12.9967 0.2787 12.7139 0.561438C12.4312 0.844176 12.2721 1.22751 12.2716 1.62736V2.12382H10.7281V1.62736C10.7281 1.42945 10.6891 1.23348 10.6134 1.05064C10.5377 0.867796 10.4267 0.701661 10.2867 0.56172C10.1468 0.421778 9.98064 0.31077 9.7978 0.235034C9.61496 0.159298 9.41899 0.120317 9.22108 0.120317C9.02317 0.120317 8.8272 0.159298 8.64436 0.235034C8.46152 0.31077 8.29538 0.421778 8.15544 0.56172C8.0155 0.701661 7.90449 0.867796 7.82875 1.05064C7.75302 1.23348 7.71404 1.42945 7.71404 1.62736V2.12382H6.17053V1.62736C6.16947 1.22768 6.01023 0.844671 5.72761 0.562054C5.44499 0.279437 5.06199 0.120196 4.66231 0.119141C4.26245 0.119639 3.87912 0.2787 3.59639 0.561438C3.31365 0.844176 3.15459 1.22751 3.15409 1.62736V2.14829C2.42248 2.23851 1.74902 2.59283 1.26028 3.14466C0.771533 3.69649 0.501169 4.40782 0.5 5.14497V19.0978C0.500934 19.8987 0.819532 20.6666 1.3859 21.233C1.95228 21.7994 2.72017 22.118 3.52114 22.1189H19.4786C20.2796 22.118 21.0475 21.7994 21.6139 21.233C22.1802 20.6666 22.4988 19.8987 22.4998 19.0978V5.14497C22.4986 4.40782 22.2282 3.69649 21.7395 3.14466C21.2507 2.59283 20.5773 2.23851 19.8457 2.14829ZM17.6528 1.62736C17.653 1.44584 17.7252 1.27183 17.8536 1.14348C17.9819 1.01513 18.1559 0.94291 18.3374 0.942661C18.5187 0.943772 18.6922 1.01627 18.8204 1.14443C18.9485 1.2726 19.021 1.44611 19.0221 1.62736V3.44381C19.0221 3.6254 18.95 3.79956 18.8216 3.92796C18.6932 4.05637 18.519 4.12851 18.3374 4.12851C18.1559 4.12851 17.9817 4.05637 17.8533 3.92796C17.7249 3.79956 17.6528 3.6254 17.6528 3.44381V1.62736ZM13.0952 1.62736C13.0953 1.44582 13.1675 1.27178 13.2959 1.14341C13.4243 1.01505 13.5983 0.942848 13.7799 0.942661C13.9611 0.943222 14.1346 1.01561 14.2626 1.14397C14.3905 1.27232 14.4623 1.44615 14.4622 1.62736V3.44381C14.4622 3.62509 14.3902 3.79895 14.262 3.92713C14.1338 4.05532 13.96 4.12733 13.7787 4.12733C13.5974 4.12733 13.4235 4.05532 13.2954 3.92713C13.1672 3.79895 13.0952 3.62509 13.0952 3.44381V1.62736ZM8.53756 1.62736C8.53756 1.44608 8.60957 1.27222 8.73776 1.14404C8.86594 1.01585 9.0398 0.943837 9.22108 0.943837C9.40236 0.943837 9.57622 1.01585 9.7044 1.14404C9.83259 1.27222 9.9046 1.44608 9.9046 1.62736V3.44381C9.9046 3.62509 9.83259 3.79895 9.7044 3.92713C9.57622 4.05532 9.40236 4.12733 9.22108 4.12733C9.0398 4.12733 8.86594 4.05532 8.73776 3.92713C8.60957 3.79895 8.53756 3.62509 8.53756 3.44381V1.62736ZM3.97761 1.62736C3.9778 1.44582 4.04999 1.27178 4.17836 1.14341C4.30672 1.01505 4.48077 0.942848 4.66231 0.942661C4.84356 0.943772 5.01707 1.01627 5.14523 1.14443C5.2734 1.2726 5.34589 1.44611 5.347 1.62736V3.44381C5.347 3.6254 5.27487 3.79956 5.14646 3.92796C5.01806 4.05637 4.8439 4.12851 4.66231 4.12851C4.48071 4.12851 4.30656 4.05637 4.17815 3.92796C4.04975 3.79956 3.97761 3.6254 3.97761 3.44381V1.62736ZM3.15409 2.98052V3.44381C3.15409 3.84381 3.31299 4.22744 3.59584 4.51028C3.87868 4.79313 4.2623 4.95203 4.66231 4.95203C5.06231 4.95203 5.44593 4.79313 5.72878 4.51028C6.01162 4.22744 6.17053 3.84381 6.17053 3.44381V2.94734H7.71404V3.44381C7.71404 3.8435 7.87281 4.22682 8.15544 4.50945C8.43807 4.79207 8.82139 4.95085 9.22108 4.95085C9.62077 4.95085 10.0041 4.79207 10.2867 4.50945C10.5693 4.22682 10.7281 3.8435 10.7281 3.44381V2.94734H12.2716V3.44381C12.2716 3.8435 12.4304 4.22682 12.713 4.50945C12.9957 4.79207 13.379 4.95085 13.7787 4.95085C14.1784 4.95085 14.5617 4.79207 14.8443 4.50945C15.1269 4.22682 15.2857 3.8435 15.2857 3.44381V2.94734H16.8292V3.44381C16.8292 3.84381 16.9881 4.22744 17.271 4.51028C17.5538 4.79313 17.9374 4.95203 18.3374 4.95203C18.7375 4.95203 19.1211 4.79313 19.4039 4.51028C19.6868 4.22744 19.8457 3.84381 19.8457 3.44381V2.98052C20.3571 3.06753 20.8213 3.3325 21.1562 3.7286C21.4912 4.1247 21.6754 4.62645 21.6762 5.1452V6.38448H1.32352V5.14497C1.32444 4.62626 1.50865 4.12457 1.84361 3.72851C2.17857 3.33246 2.64273 3.06753 3.15409 2.98052ZM19.4786 21.2954H3.52114C2.93851 21.2947 2.37993 21.0629 1.96795 20.651C1.55596 20.239 1.32421 19.6804 1.32352 19.0978V7.20847H21.6762V19.0978C21.6756 19.6804 21.4438 20.239 21.0318 20.651C20.6198 21.0629 20.0612 21.2947 19.4786 21.2954Z" fill="#FECB00"/>
<path d="M6.24929 9.27051H4.58672C4.29728 9.27088 4.01981 9.38603 3.81514 9.59069C3.61048 9.79535 3.49534 10.0728 3.49496 10.3623V12.0248C3.49534 12.3143 3.61048 12.5917 3.81514 12.7964C4.01981 13.0011 4.29728 13.1162 4.58672 13.1166H6.24929C6.53872 13.1162 6.8162 13.0011 7.02086 12.7964C7.22552 12.5917 7.34067 12.3143 7.34104 12.0248V10.3623C7.34067 10.0728 7.22552 9.79535 7.02086 9.59069C6.8162 9.38603 6.53872 9.27088 6.24929 9.27051ZM6.51752 12.0248C6.51746 12.096 6.48918 12.1641 6.43889 12.2144C6.3886 12.2647 6.32041 12.293 6.24929 12.2931H4.58672C4.5156 12.293 4.44741 12.2647 4.39712 12.2144C4.34683 12.1641 4.31855 12.096 4.31848 12.0248V10.3623C4.31855 10.2911 4.34683 10.223 4.39712 10.1727C4.44741 10.1224 4.5156 10.0941 4.58672 10.094H6.24929C6.32041 10.0941 6.3886 10.1224 6.43889 10.1727C6.48918 10.223 6.51746 10.2911 6.51752 10.3623V12.0248ZM12.3313 9.27051H10.6688C10.3793 9.27088 10.1019 9.38603 9.89719 9.59069C9.69253 9.79535 9.57739 10.0728 9.57701 10.3623V12.0248C9.57739 12.3143 9.69253 12.5917 9.89719 12.7964C10.1019 13.0011 10.3793 13.1162 10.6688 13.1166H12.3313C12.6208 13.1162 12.8982 13.0011 13.1029 12.7964C13.3076 12.5917 13.4227 12.3143 13.4231 12.0248V10.3623C13.4227 10.0728 13.3076 9.79535 13.1029 9.59069C12.8982 9.38603 12.6208 9.27088 12.3313 9.27051ZM12.5996 12.0248C12.5995 12.096 12.5712 12.1641 12.5209 12.2144C12.4706 12.2647 12.4025 12.293 12.3313 12.2931H10.6688C10.5976 12.293 10.5295 12.2647 10.4792 12.2144C10.4289 12.1641 10.4006 12.096 10.4005 12.0248V10.3623C10.4006 10.2911 10.4289 10.223 10.4792 10.1727C10.5295 10.1224 10.5976 10.0941 10.6688 10.094H12.3313C12.4025 10.0941 12.4706 10.1224 12.5209 10.1727C12.5712 10.223 12.5995 10.2911 12.5996 10.3623V12.0248ZM18.947 9.8338L17.1 11.6799L16.2162 10.7961C16.1386 10.7211 16.0345 10.6797 15.9266 10.6806C15.8186 10.6816 15.7154 10.7249 15.639 10.8013C15.5627 10.8776 15.5194 10.9809 15.5185 11.0889C15.5176 11.1968 15.5591 11.3008 15.6341 11.3785L16.8089 12.5533C16.8472 12.5916 16.8925 12.6219 16.9425 12.6426C16.9925 12.6633 17.046 12.674 17.1001 12.674C17.1542 12.674 17.2077 12.6633 17.2577 12.6426C17.3077 12.6219 17.3531 12.5916 17.3913 12.5533L19.5294 10.4152C19.5676 10.377 19.5979 10.3316 19.6186 10.2816C19.6393 10.2317 19.65 10.1781 19.65 10.124C19.65 10.07 19.6393 10.0164 19.6186 9.96645C19.5979 9.91649 19.5676 9.87109 19.5294 9.83286C19.4911 9.79462 19.4457 9.76429 19.3958 9.74359C19.3458 9.7229 19.2923 9.71225 19.2382 9.71225C19.1841 9.71225 19.1306 9.7229 19.0806 9.74359C19.0307 9.76429 18.9853 9.79462 18.947 9.83286V9.8338ZM6.24929 14.9424H4.58672C4.29728 14.9428 4.01981 15.058 3.81514 15.2626C3.61048 15.4673 3.49534 15.7448 3.49496 16.0342V17.6968C3.49534 17.9862 3.61048 18.2637 3.81514 18.4683C4.01981 18.673 4.29728 18.7881 4.58672 18.7885H6.24929C6.53872 18.7881 6.8162 18.673 7.02086 18.4683C7.22552 18.2637 7.34067 17.9862 7.34104 17.6968V16.0342C7.34067 15.7448 7.22552 15.4673 7.02086 15.2626C6.8162 15.058 6.53872 14.9428 6.24929 14.9424ZM6.51752 17.6968C6.51746 17.7679 6.48918 17.8361 6.43889 17.8864C6.3886 17.9367 6.32041 17.9649 6.24929 17.965H4.58672C4.5156 17.9649 4.44741 17.9367 4.39712 17.8864C4.34683 17.8361 4.31855 17.7679 4.31848 17.6968V16.0342C4.31855 15.9631 4.34683 15.8949 4.39712 15.8446C4.44741 15.7943 4.5156 15.766 4.58672 15.766H6.24929C6.32041 15.766 6.3886 15.7943 6.43889 15.8446C6.48918 15.8949 6.51746 15.9631 6.51752 16.0342V17.6968ZM12.3313 14.9424H10.6688C10.3793 14.9428 10.1019 15.058 9.89719 15.2626C9.69253 15.4673 9.57739 15.7448 9.57701 16.0342V17.6968C9.57739 17.9862 9.69253 18.2637 9.89719 18.4683C10.1019 18.673 10.3793 18.7881 10.6688 18.7885H12.3313C12.6208 18.7881 12.8982 18.673 13.1029 18.4683C13.3076 18.2637 13.4227 17.9862 13.4231 17.6968V16.0342C13.4227 15.7448 13.3076 15.4673 13.1029 15.2626C12.8982 15.058 12.6208 14.9428 12.3313 14.9424ZM12.5996 17.6968C12.5995 17.7679 12.5712 17.8361 12.5209 17.8864C12.4706 17.9367 12.4025 17.9649 12.3313 17.965H10.6688C10.5976 17.9649 10.5295 17.9367 10.4792 17.8864C10.4289 17.8361 10.4006 17.7679 10.4005 17.6968V16.0342C10.4006 15.9631 10.4289 15.8949 10.4792 15.8446C10.5295 15.7943 10.5976 15.766 10.6688 15.766H12.3313C12.4025 15.766 12.4706 15.7943 12.5209 15.8446C12.5712 15.8949 12.5995 15.9631 12.5996 16.0342V17.6968ZM18.4134 14.9424H16.7508C16.4614 14.9428 16.1839 15.058 15.9792 15.2626C15.7746 15.4673 15.6594 15.7448 15.6591 16.0342V17.6968C15.6594 17.9862 15.7746 18.2637 15.9792 18.4683C16.1839 18.673 16.4614 18.7881 16.7508 18.7885H18.4134C18.7028 18.7881 18.9803 18.673 19.185 18.4683C19.3896 18.2637 19.5048 17.9862 19.5051 17.6968V16.0342C19.5048 15.7448 19.3896 15.4673 19.185 15.2626C18.9803 15.058 18.7028 14.9428 18.4134 14.9424ZM18.6816 17.6968C18.6816 17.7679 18.6533 17.8361 18.603 17.8864C18.5527 17.9367 18.4845 17.9649 18.4134 17.965H16.7508C16.6797 17.9649 16.6115 17.9367 16.5612 17.8864C16.5109 17.8361 16.4826 17.7679 16.4826 17.6968V16.0342C16.4826 15.9631 16.5109 15.8949 16.5612 15.8446C16.6115 15.7943 16.6797 15.766 16.7508 15.766H18.4134C18.4845 15.766 18.5527 15.7943 18.603 15.8446C18.6533 15.8949 18.6816 15.9631 18.6816 16.0342V17.6968Z" fill="#FECB00"/>
</g>
<defs>
<clipPath id="clip0_488_10220">
<rect width="22" height="22" fill="white" transform="translate(0.5 0.120117)"/>
</clipPath>
</defs>
</svg>
