<svg width="19" height="18" viewBox="0 0 19 18" fill="none" xmlns="http://www.w3.org/2000/svg">
<path d="M10.5994 16.2449L13.5181 17.7776C13.8117 17.9313 14.1424 17.9997 14.4729 17.9753C14.8034 17.9509 15.1205 17.8345 15.3884 17.6393C15.6562 17.4442 15.8641 17.178 15.9887 16.8709C16.1132 16.5638 16.1494 16.228 16.0931 15.9014L15.5369 12.655C15.488 12.3709 15.5089 12.0792 15.598 11.8051C15.6871 11.5309 15.8415 11.2825 16.0481 11.0815L18.4063 8.78242C18.6438 8.55098 18.8118 8.25771 18.8913 7.93577C18.9708 7.61383 18.9586 7.27607 18.8562 6.96069C18.7537 6.64532 18.565 6.3649 18.3115 6.15116C18.058 5.93742 17.7497 5.79888 17.4215 5.75122L14.1618 5.27757C13.8774 5.2354 13.6074 5.12492 13.3751 4.95558C13.1427 4.78624 12.9548 4.56309 12.8276 4.30524L11.3658 1.35493C11.219 1.05756 10.992 0.807185 10.7104 0.632112C10.4288 0.45704 10.1038 0.364258 9.77221 0.364258C9.44061 0.364258 9.11562 0.45704 8.834 0.632112C8.55239 0.807185 8.32537 1.05756 8.17864 1.35493L6.72099 4.31025C6.59374 4.56809 6.40589 4.79124 6.17352 4.96058C5.94114 5.12992 5.67118 5.24041 5.38676 5.28257L2.12707 5.75622C1.7989 5.80388 1.49063 5.94242 1.23709 6.15616C0.983564 6.3699 0.794897 6.65032 0.692431 6.9657C0.589966 7.28108 0.57779 7.61883 0.65728 7.94077C0.736771 8.26271 0.904756 8.55598 1.14224 8.78742L3.50049 11.0865C3.70704 11.2875 3.86152 11.5359 3.95059 11.8101C4.03965 12.0842 4.06061 12.3759 4.01167 12.66L3.45129 15.9014C3.39457 16.2284 3.43058 16.5648 3.55523 16.8724C3.67989 17.18 3.88821 17.4466 4.1566 17.6419C4.42498 17.8372 4.7427 17.9534 5.07375 17.9774C5.4048 18.0014 5.73596 17.9322 6.02969 17.7776L8.94832 16.2449C9.20308 16.1116 9.48634 16.042 9.77387 16.042C10.0614 16.042 10.3447 16.1116 10.5994 16.2449Z" fill="#FECB00"/>
</svg>
