<svg width="20" height="21" viewBox="0 0 20 21" fill="none" xmlns="http://www.w3.org/2000/svg">
<path d="M3.22047 0.800205C3.07199 0.861705 2.94508 0.96586 2.8558 1.09949C2.76652 1.23313 2.71887 1.39024 2.71889 1.55096V6.14754C2.71889 6.36303 2.80449 6.56969 2.95686 6.72206C3.10924 6.87444 3.3159 6.96004 3.53139 6.96004H8.12797C8.28856 6.9599 8.44551 6.91217 8.579 6.82288C8.71248 6.73359 8.81651 6.60675 8.87795 6.45837C8.93939 6.31 8.95547 6.14674 8.92418 5.98922C8.89289 5.83171 8.81562 5.687 8.70214 5.57337L6.96664 3.8357C8.56081 3.16813 10.3307 3.04502 12.0019 3.48546C13.6732 3.9259 15.1525 4.90529 16.2106 6.27185C17.2687 7.6384 17.8465 9.31581 17.8545 11.0441C17.8624 12.7724 17.3001 14.4551 16.2547 15.8313C15.2092 17.2076 13.739 18.2006 12.0719 18.6564C10.4047 19.1122 8.63383 19.0054 7.03357 18.3526C5.4333 17.6997 4.09306 16.5373 3.22054 15.0454C2.34803 13.5535 1.99197 11.8154 2.20755 10.1006C2.22988 9.8891 2.16837 9.67726 2.03624 9.51059C1.90411 9.34391 1.71189 9.2357 1.50085 9.20918C1.28982 9.18266 1.0768 9.23995 0.907536 9.36874C0.73827 9.49754 0.626259 9.68757 0.595554 9.89804C0.331858 11.9956 0.776886 14.121 1.85989 15.9366C2.9429 17.7521 4.60173 19.1535 6.57267 19.918C8.54362 20.6826 10.7136 20.7663 12.7376 20.1559C14.7616 19.5455 16.5234 18.2761 17.7431 16.5494C18.9628 14.8227 19.5703 12.7378 19.469 10.6262C19.3677 8.51464 18.5634 6.4975 17.1841 4.89547C15.8047 3.29345 13.9294 2.19849 11.8563 1.78466C9.78316 1.37083 7.63119 1.66188 5.74247 2.61154L4.10664 0.975705C3.99297 0.862255 3.84823 0.785035 3.6907 0.753798C3.53317 0.722562 3.36883 0.738711 3.22047 0.800205Z" fill="#FECB00"/>
</svg>
