<svg width="23" height="23" viewBox="0 0 23 23" fill="none" xmlns="http://www.w3.org/2000/svg">
<g clip-path="url(#clip0_488_10229)">
<path d="M20.3499 14.2673H20.256C20.1184 14.2685 19.9844 14.3112 19.8714 14.3896C19.7584 14.4681 19.6716 14.5788 19.6224 14.7073C19.5706 14.8314 19.5569 14.9681 19.583 15.1C19.6091 15.2319 19.6739 15.353 19.7691 15.448L19.8358 15.5147C20.2381 15.9185 20.4639 16.4653 20.4639 17.0353C20.4639 17.6053 20.2381 18.152 19.8358 18.5559L18.7277 19.6632C18.3242 20.0658 17.7775 20.2919 17.2075 20.2919C16.6375 20.2919 16.0908 20.0658 15.6873 19.6632L15.6206 19.5965C15.5223 19.5018 15.3985 19.4378 15.2643 19.4125C15.1302 19.3872 14.9916 19.4016 14.8655 19.4539C14.7395 19.5063 14.6314 19.5942 14.5546 19.7071C14.4779 19.82 14.4357 19.9528 14.4333 20.0893V20.1839C14.4328 20.7539 14.206 21.3005 13.8029 21.7036C13.3998 22.1067 12.8533 22.3334 12.2832 22.334H10.7168C10.1467 22.3334 9.60017 22.1067 9.19707 21.7036C8.79397 21.3005 8.56725 20.7539 8.56667 20.1839V20.0893C8.56309 19.9538 8.52032 19.8222 8.44352 19.7105C8.36672 19.5988 8.25919 19.5118 8.13395 19.46C8.0087 19.4081 7.87112 19.3937 7.73785 19.4185C7.60459 19.4432 7.48135 19.506 7.38307 19.5994L7.32 19.6661C6.9165 20.0687 6.36979 20.2948 5.7998 20.2948C5.22981 20.2948 4.6831 20.0687 4.2796 19.6661L3.16787 18.5588C2.7656 18.155 2.53973 17.6082 2.53973 17.0382C2.53973 16.4682 2.7656 15.9215 3.16787 15.5177L3.2346 15.4509C3.33071 15.3526 3.39503 15.2276 3.41922 15.0923C3.44342 14.9569 3.42636 14.8174 3.37027 14.6919C3.31994 14.5669 3.23348 14.4597 3.12192 14.3841C3.01036 14.3084 2.87878 14.2678 2.744 14.2673H2.65013C2.08006 14.2667 1.5335 14.04 1.1304 13.6369C0.727301 13.2338 0.500582 12.6873 0.5 12.1172V10.5508C0.500582 9.98071 0.727301 9.43416 1.1304 9.03105C1.5335 8.62795 2.08006 8.40123 2.65013 8.40065H2.744C2.88159 8.39944 3.01562 8.35681 3.12863 8.27833C3.24165 8.19985 3.3284 8.08915 3.3776 7.96065C3.4294 7.83657 3.44311 7.69989 3.41699 7.568C3.39087 7.4361 3.32611 7.31496 3.23093 7.21998L3.1642 7.15325C2.76193 6.74944 2.53606 6.20267 2.53606 5.63268C2.53606 5.06269 2.76193 4.51593 3.1642 4.11212L4.27153 3.00552C4.67497 2.60253 5.22187 2.37617 5.7921 2.37617C6.36233 2.37617 6.90923 2.60253 7.31267 3.00552L7.3794 3.07225C7.47778 3.16827 7.60273 3.23253 7.73805 3.25672C7.87338 3.28091 8.01285 3.26391 8.1384 3.20792C8.26343 3.15781 8.37065 3.07149 8.4463 2.96004C8.52195 2.84859 8.56259 2.71708 8.563 2.58238V2.48778C8.56281 2.20489 8.61839 1.92473 8.72656 1.66333C8.83473 1.40193 8.99337 1.16442 9.1934 0.964386C9.39344 0.764349 9.63095 0.605709 9.89235 0.49754C10.1537 0.38937 10.4339 0.333792 10.7168 0.333984H12.2832C12.8533 0.334566 13.3998 0.561285 13.8029 0.964386C14.206 1.36749 14.4328 1.91405 14.4333 2.48412V2.57872C14.4369 2.71422 14.4797 2.84577 14.5565 2.95746C14.6333 3.06915 14.7408 3.15618 14.8661 3.20801C14.9913 3.25985 15.1289 3.27426 15.2621 3.24952C15.3954 3.22477 15.5186 3.16192 15.6169 3.06858L15.6837 3.00185C16.0872 2.59927 16.6339 2.37317 17.2039 2.37317C17.7739 2.37317 18.3206 2.59927 18.7241 3.00185L19.8321 4.10845C20.2344 4.51226 20.4603 5.05903 20.4603 5.62902C20.4603 6.19901 20.2344 6.74577 19.8321 7.14958L19.7654 7.21632C19.6693 7.31464 19.605 7.43959 19.5808 7.57494C19.5566 7.71029 19.5736 7.84979 19.6297 7.97532C19.6799 8.10049 19.7664 8.20783 19.8779 8.2836C19.9895 8.35937 20.1211 8.40013 20.256 8.40065H20.3499C20.9199 8.40123 21.4665 8.62795 21.8696 9.03105C22.2727 9.43416 22.4994 9.98071 22.5 10.5508V12.1172C22.4994 12.6873 22.2727 13.2338 21.8696 13.6369C21.4665 14.04 20.9199 14.2667 20.3499 14.2673ZM21.0333 10.5508C21.0331 10.3696 20.9611 10.1958 20.8329 10.0677C20.7048 9.93958 20.5311 9.86751 20.3499 9.86732H20.256C19.8304 9.8637 19.4154 9.73489 19.0625 9.49696C18.7097 9.25903 18.4347 8.9225 18.2718 8.52933C18.1089 8.13616 18.0653 7.70374 18.1465 7.28599C18.2278 6.86824 18.4301 6.48363 18.7285 6.18012L18.7945 6.11338C18.9225 5.98499 18.9944 5.81107 18.9944 5.62975C18.9944 5.44843 18.9225 5.27451 18.7945 5.14612L17.6864 4.03952C17.5582 3.91135 17.3844 3.83935 17.2031 3.83935C17.0219 3.83935 16.848 3.91135 16.7199 4.03952L16.6539 4.10625C16.3502 4.40422 15.9656 4.6063 15.548 4.68732C15.1304 4.76834 14.6981 4.72472 14.3051 4.56189C13.9121 4.39907 13.5756 4.12423 13.3376 3.7716C13.0996 3.41897 12.9706 3.00412 12.9667 2.57872V2.48412C12.9665 2.30291 12.8944 2.12918 12.7663 2.00105C12.6381 1.87292 12.4644 1.80084 12.2832 1.80065H10.7168C10.5356 1.80084 10.3619 1.87292 10.2337 2.00105C10.1056 2.12918 10.0335 2.30291 10.0333 2.48412V2.57872C10.0313 3.00498 9.90337 3.42115 9.66567 3.77499C9.42797 4.12884 9.09106 4.4046 8.69722 4.56769C8.30338 4.73077 7.87014 4.7739 7.45188 4.69168C7.03361 4.60946 6.64894 4.40554 6.34613 4.10552L6.2794 4.03878C6.15104 3.91098 5.97727 3.83922 5.79613 3.83922C5.61499 3.83922 5.44123 3.91098 5.31287 4.03878L4.20553 5.14538C4.0775 5.27378 4.00561 5.4477 4.00561 5.62902C4.00561 5.81034 4.0775 5.98426 4.20553 6.11265L4.27227 6.17938C4.57088 6.4829 4.77349 6.86764 4.85482 7.28559C4.93615 7.70353 4.89259 8.13617 4.72959 8.52952C4.56659 8.92287 4.29136 9.2595 3.93824 9.49741C3.58513 9.73532 3.16977 9.86398 2.744 9.86732H2.65013C2.46893 9.86751 2.2952 9.93958 2.16706 10.0677C2.03893 10.1958 1.96686 10.3696 1.96667 10.5508V12.1172C1.96686 12.2984 2.03893 12.4721 2.16706 12.6003C2.2952 12.7284 2.46893 12.8005 2.65013 12.8007H2.744C3.16956 12.8043 3.58464 12.9331 3.93749 13.171C4.29034 13.4089 4.56535 13.7455 4.72823 14.1386C4.89111 14.5318 4.93466 14.9642 4.85345 15.382C4.77224 15.7997 4.56985 16.1843 4.27153 16.4879L4.20553 16.5546C4.07755 16.6829 4.00567 16.8567 4.00567 17.0379C4.00567 17.219 4.07755 17.3928 4.20553 17.5211L5.31287 18.6292C5.44104 18.7573 5.61488 18.8293 5.79613 18.8293C5.97739 18.8293 6.15123 18.7573 6.2794 18.6292L6.3454 18.5625C6.64896 18.2643 7.03354 18.062 7.45124 17.9808C7.86893 17.8996 8.30128 17.9431 8.69443 18.1059C9.08758 18.2687 9.42416 18.5435 9.66224 18.8962C9.90031 19.2488 10.0294 19.6638 10.0333 20.0893V20.1839C10.0335 20.3651 10.1056 20.5388 10.2337 20.6669C10.3619 20.7951 10.5356 20.8671 10.7168 20.8673H12.2832C12.4644 20.8671 12.6381 20.7951 12.7663 20.6669C12.8944 20.5388 12.9665 20.3651 12.9667 20.1839V20.0893C12.9704 19.6638 13.0993 19.2488 13.3373 18.896C13.5753 18.5433 13.9118 18.2684 14.305 18.1056C14.6981 17.9428 15.1305 17.8993 15.5482 17.9806C15.9659 18.0618 16.3504 18.2642 16.6539 18.5625L16.7206 18.6292C16.8488 18.7573 17.0226 18.8293 17.2039 18.8293C17.3851 18.8293 17.559 18.7573 17.6871 18.6292L18.7945 17.5211C18.9225 17.3928 18.9943 17.219 18.9943 17.0379C18.9943 16.8567 18.9225 16.6829 18.7945 16.5546L18.7277 16.4879C18.4294 16.1843 18.227 15.7996 18.1458 15.3818C18.0646 14.964 18.1082 14.5315 18.2712 14.1383C18.4342 13.7451 18.7093 13.4086 19.0622 13.1707C19.4152 12.9328 19.8304 12.8041 20.256 12.8007H20.3499C20.5311 12.8005 20.7048 12.7284 20.8329 12.6003C20.9611 12.4721 21.0331 12.2984 21.0333 12.1172V10.5508Z" fill="#FECB00"/>
<path d="M11.5 16.4678C10.4847 16.4678 9.49225 16.1667 8.64808 15.6027C7.8039 15.0386 7.14595 14.2369 6.75742 13.2989C6.36889 12.3609 6.26724 11.3287 6.46531 10.333C6.66338 9.33721 7.15228 8.42253 7.87019 7.70463C8.5881 6.98672 9.50277 6.49781 10.4985 6.29974C11.4943 6.10167 12.5265 6.20333 13.4644 6.59186C14.4024 6.98039 15.2042 7.63834 15.7682 8.48251C16.3323 9.32668 16.6333 10.3192 16.6333 11.3344C16.6318 12.6954 16.0905 14.0002 15.1281 14.9625C14.1658 15.9249 12.861 16.4662 11.5 16.4678ZM11.5 7.66777C10.7748 7.66777 10.0659 7.88282 9.46291 8.28572C8.85993 8.68862 8.38997 9.26127 8.11245 9.93127C7.83492 10.6013 7.76231 11.3385 7.90379 12.0498C8.04527 12.761 8.39449 13.4144 8.90728 13.9272C9.42007 14.44 10.0734 14.7892 10.7847 14.9307C11.4959 15.0721 12.2332 14.9995 12.9032 14.722C13.5732 14.4445 14.1458 13.9745 14.5487 13.3715C14.9516 12.7686 15.1667 12.0596 15.1667 11.3344C15.1655 10.3623 14.7788 9.43038 14.0914 8.743C13.4041 8.05562 12.4721 7.66894 11.5 7.66777Z" fill="#FECB00"/>
</g>
<defs>
<clipPath id="clip0_488_10229">
<rect width="22" height="22" fill="white" transform="matrix(1 0 0 -1 0.5 22.334)"/>
</clipPath>
</defs>
</svg>
