<svg width="26" height="26" viewBox="0 0 26 26" fill="none" xmlns="http://www.w3.org/2000/svg">
<path d="M23.5629 10.422C23.4731 10.146 23.3088 9.90009 23.088 9.7116C22.8672 9.52312 22.5986 9.39937 22.3119 9.35403L16.6928 8.49166L14.1745 3.14854C14.0518 2.87658 13.8532 2.64577 13.6026 2.4838C13.3521 2.32183 13.0601 2.23557 12.7617 2.23535C12.1534 2.23535 11.6116 2.58562 11.3489 3.14698L8.82982 8.49244L3.21072 9.35481C2.92409 9.4004 2.65561 9.52425 2.43488 9.71269C2.21415 9.90114 2.04974 10.1469 1.95977 10.4228C1.86244 10.7078 1.84575 11.0141 1.91157 11.308C1.97738 11.6019 2.12312 11.8719 2.33271 12.0881L6.42175 16.296L5.45539 22.2474C5.35375 22.8744 5.60707 23.4858 6.11761 23.8447C6.35357 24.0112 6.63177 24.1077 6.92017 24.1231C7.20857 24.1384 7.49544 24.072 7.74775 23.9315L12.7484 21.1419L17.7765 23.9315C18.0284 24.0729 18.3153 24.1398 18.6037 24.1244C18.8922 24.109 19.1703 24.012 19.4058 23.8447C19.6561 23.6686 19.8512 23.4251 19.9684 23.1425C20.0857 22.8598 20.1202 22.5497 20.068 22.2482L19.1017 16.2968L23.1907 12.0889C23.4003 11.8727 23.546 11.6027 23.6119 11.3088C23.6777 11.0149 23.661 10.7086 23.5637 10.4236L23.5629 10.422Z" fill="#FFCB2B"/>
<path d="M16.881 8.2661L5.67862 23.6047" stroke="#F6F6F6" stroke-width="1.02753"/>
</svg>
