<svg width="23" height="22" viewBox="0 0 23 22" fill="none" xmlns="http://www.w3.org/2000/svg">
<path fill-rule="evenodd" clip-rule="evenodd" d="M21.1527 4.86133C20.4255 5.18385 19.6441 5.40179 18.8239 5.49976C19.6609 4.99793 20.3039 4.20335 20.6067 3.25645C19.8232 3.72111 18.9554 4.05859 18.0318 4.24039C17.2921 3.4523 16.2383 2.95996 15.0721 2.95996C12.8328 2.95996 11.0172 4.77539 11.0172 7.01466C11.0172 7.33246 11.053 7.64192 11.1222 7.93871C7.7523 7.76958 4.76447 6.15533 2.76462 3.70212C2.41558 4.30097 2.21561 4.99745 2.21561 5.7406C2.21561 7.14735 2.93142 8.38846 4.01943 9.11562C3.35475 9.09452 2.72951 8.91216 2.18286 8.60842C2.18248 8.62539 2.18248 8.64228 2.18248 8.65946C2.18248 10.624 3.58021 12.2628 5.43513 12.6354C5.0949 12.728 4.73667 12.7777 4.36688 12.7777C4.10559 12.7777 3.8516 12.7522 3.60397 12.7049C4.11998 14.3157 5.6174 15.4881 7.39179 15.5208C6.00407 16.6084 4.25572 17.2566 2.35594 17.2566C2.02865 17.2566 1.70591 17.2374 1.38867 17.1998C3.18313 18.3503 5.31451 19.0217 7.60432 19.0217C15.0626 19.0217 19.1411 12.8431 19.1411 7.48479C19.1411 7.309 19.1372 7.13416 19.1294 6.96022C19.9217 6.38857 20.6091 5.67443 21.1527 4.86133Z" fill="#FECB00"/>
</svg>
