<svg width="49" height="26" viewBox="0 0 49 26" fill="none" xmlns="http://www.w3.org/2000/svg">
<path d="M36.637 16.0195C34.038 16.0195 31.9199 18.1325 31.9199 20.7315C31.9199 23.3306 34.038 25.4487 36.637 25.4487C39.236 25.4487 41.349 23.3306 41.349 20.7315C41.349 18.1325 39.236 16.0195 36.637 16.0195ZM10.6366 16.0195C8.03753 16.0195 5.91943 18.1325 5.91943 20.7315C5.91943 23.3306 8.03753 25.4487 10.6366 25.4487C13.2356 25.4487 15.3486 23.3306 15.3486 20.7315C15.3486 18.1325 13.2356 16.0195 10.6366 16.0195Z" fill="#FECB00"/>
<path d="M45.534 15.4713C44.9713 15.4713 44.5108 15.0109 44.5108 14.4481C44.5108 13.8853 44.9713 13.4249 45.534 13.4249H48.0972V12.5602C48.0972 10.8412 46.9308 9.3575 45.2629 8.95332C45.2526 8.94821 45.2373 8.94821 45.2219 8.94309C42.6783 8.2403 40.0805 7.75086 37.4556 7.47986L31.7203 1.74973C30.738 0.767428 28.886 0 27.5046 0H14.8932C13.5016 0.0204647 11.7212 0.762312 10.7338 1.74462L5.04456 7.44405H3.06971C1.37625 7.44405 0 8.8203 0 10.5138V12.2686H2.52739C3.09017 12.2686 3.55063 12.7291 3.55063 13.2918C3.55063 13.8546 3.09017 14.3151 2.52739 14.3151H0V18.6945C0 20.3829 1.37114 21.754 3.05948 21.754H3.36645C3.92923 21.754 4.38969 21.2936 4.38969 20.7308C4.38969 17.2876 7.19335 14.4839 10.6417 14.4839C14.09 14.4839 16.8936 17.2876 16.8936 20.7308C16.8936 21.2936 17.3541 21.754 17.9169 21.754H29.3669C29.9297 21.754 30.3901 21.2936 30.3901 20.7308C30.3901 17.2876 33.1938 14.4839 36.6421 14.4839C40.0853 14.4839 42.889 17.2876 42.889 20.7308C42.889 21.2936 43.3494 21.754 43.9122 21.754H44.3368C46.414 21.754 48.1024 20.0657 48.1024 17.9885V15.4713H45.534ZM23.1917 7.43893H13.6039L15.6606 2.04647H23.1917V7.43893ZM27.4688 11.3886H26.0925C25.5298 11.3886 25.0693 10.9282 25.0693 10.3654C25.0693 9.80261 25.5298 9.34215 26.0925 9.34215H27.4688C28.0316 9.34215 28.492 9.80261 28.492 10.3654C28.492 10.9282 28.0316 11.3886 27.4688 11.3886ZM25.2381 7.43893V2.04647H27.5046C28.3539 2.04647 29.6739 2.59391 30.2776 3.19761L34.524 7.43893H25.2381Z" fill="#FECB00"/>
</svg>
