<svg width="22" height="18" viewBox="0 0 22 18" fill="none" xmlns="http://www.w3.org/2000/svg">
<rect x="4.26433" y="4.62695" width="8.85858" height="2.74414" fill="#7A797A"/>
<path d="M21.1807 7.92896V10.0714C21.1807 10.6434 20.7231 11.1114 20.1407 11.1322H18.1023C16.9791 11.1322 15.9495 10.3106 15.8559 9.18736C15.7935 8.53216 16.0431 7.91856 16.4799 7.49216C16.8647 7.09696 17.3951 6.86816 17.9775 6.86816H20.1407C20.7231 6.88896 21.1807 7.35696 21.1807 7.92896Z" fill="#7A797A"/>
<path d="M19.5895 12.6922H18.1023C16.1263 12.6922 14.4623 11.205 14.2959 9.31216C14.2023 8.23056 14.5975 7.14896 15.3879 6.37936C16.0535 5.69296 16.9791 5.30816 17.9775 5.30816H19.5895C19.8911 5.30816 20.1407 5.05856 20.1095 4.75696C19.8807 2.22976 18.2063 0.503356 15.7207 0.212156C15.4711 0.170556 15.2111 0.160156 14.9407 0.160156H5.58066C5.28946 0.160156 5.00866 0.180956 4.73826 0.222556C2.08626 0.555356 0.380661 2.53136 0.380661 5.36016V12.6402C0.380661 15.5106 2.71026 17.8402 5.58066 17.8402H14.9407C17.8527 17.8402 19.8599 16.0202 20.1095 13.2434C20.1153 13.1721 20.1061 13.1005 20.0825 13.033C20.0588 12.9656 20.0213 12.9039 19.9723 12.8519C19.9232 12.7999 19.8638 12.7588 19.7978 12.7313C19.7319 12.7038 19.6609 12.6905 19.5895 12.6922ZM11.8207 6.66016H5.58066C5.15426 6.66016 4.80066 6.30656 4.80066 5.88016C4.80066 5.45376 5.15426 5.10016 5.58066 5.10016H11.8207C12.2471 5.10016 12.6007 5.45376 12.6007 5.88016C12.6007 6.30656 12.2471 6.66016 11.8207 6.66016Z" fill="#C8C8C8"/>
</svg>
