<svg width="26" height="26" viewBox="0 0 26 26" fill="none" xmlns="http://www.w3.org/2000/svg">
<rect x="5.96484" y="8.62695" width="8.85858" height="2.74414" fill="white"/>
<path d="M22.8812 11.929V14.0714C22.8812 14.6434 22.4236 15.1114 21.8412 15.1322H19.8028C18.6796 15.1322 17.65 14.3106 17.5564 13.1874C17.494 12.5322 17.7436 11.9186 18.1804 11.4922C18.5652 11.097 19.0956 10.8682 19.678 10.8682H21.8412C22.4236 10.889 22.8812 11.357 22.8812 11.929Z" fill="#FECB00"/>
<path d="M21.2899 16.6922H19.8027C17.8267 16.6922 16.1627 15.205 15.9963 13.3122C15.9027 12.2306 16.2979 11.149 17.0883 10.3794C17.7539 9.69296 18.6795 9.30816 19.6779 9.30816H21.2899C21.5915 9.30816 21.8411 9.05856 21.8099 8.75696C21.5811 6.22976 19.9067 4.50336 17.4211 4.21216C17.1715 4.17056 16.9115 4.16016 16.6411 4.16016H7.28105C6.98985 4.16016 6.70905 4.18096 6.43865 4.22256C3.78665 4.55536 2.08105 6.53136 2.08105 9.36016V16.6402C2.08105 19.5106 4.41065 21.8402 7.28105 21.8402H16.6411C19.5531 21.8402 21.5603 20.0202 21.8099 17.2434C21.8157 17.1721 21.8065 17.1005 21.7829 17.033C21.7592 16.9656 21.7217 16.9039 21.6726 16.8519C21.6236 16.7999 21.5642 16.7588 21.4982 16.7313C21.4323 16.7038 21.3613 16.6905 21.2899 16.6922ZM13.5211 10.6602H7.28105C6.85465 10.6602 6.50105 10.3066 6.50105 9.88016C6.50105 9.45376 6.85465 9.10016 7.28105 9.10016H13.5211C13.9475 9.10016 14.3011 9.45376 14.3011 9.88016C14.3011 10.3066 13.9475 10.6602 13.5211 10.6602Z" fill="#FECB00"/>
</svg>
