<svg width="24" height="24" viewBox="0 0 24 24" fill="none" xmlns="http://www.w3.org/2000/svg">
<g clip-path="url(#clip0_215_809)">
<path d="M17.1961 17.6543L17.196 17.6544C17.1157 17.735 17.0202 17.7989 16.9151 17.8425C16.8099 17.8861 16.6972 17.9085 16.5834 17.9084H16.5833C16.4695 17.9085 16.3568 17.8861 16.2517 17.8425C16.1466 17.7989 16.0511 17.735 15.9707 17.6544L15.9707 17.6543L11.3873 13.0711L11.3872 13.071C11.3066 12.9907 11.2427 12.8952 11.1991 12.7901C11.1555 12.685 11.1332 12.5723 11.1334 12.4585V12.4584V6.5C11.1334 6.02074 11.5215 5.63339 12 5.63339C12.4785 5.63339 12.8666 6.02074 12.8666 6.5V12.0789V12.0996L12.8813 12.1142L17.1961 16.4289C17.5349 16.7679 17.5349 17.3155 17.1961 17.6543ZM12 0.95C5.90675 0.95 0.95 5.90675 0.95 12C0.95 18.0933 5.90675 23.05 12 23.05C18.0933 23.05 23.05 18.0933 23.05 12C23.05 5.90675 18.0933 0.95 12 0.95Z" fill="#FECB00" stroke="#FECB00" stroke-width="0.1"/>
</g>
<defs>
<clipPath id="clip0_215_809">
<rect width="24" height="24" fill="white"/>
</clipPath>
</defs>
</svg>
