<svg width="23" height="22" viewBox="0 0 23 22" fill="none" xmlns="http://www.w3.org/2000/svg">
<path d="M11.2705 20.625C9.36687 20.625 7.50597 20.0605 5.92315 19.0029C4.34033 17.9453 3.10667 16.4421 2.37817 14.6833C1.64968 12.9246 1.45907 10.9893 1.83045 9.12226C2.20184 7.25519 3.11853 5.54018 4.46461 4.1941C5.81069 2.84802 7.5257 1.93133 9.39277 1.55995C11.2598 1.18856 13.1951 1.37917 14.9538 2.10766C16.7126 2.83616 18.2158 4.06982 19.2734 5.65264C20.331 7.23546 20.8955 9.09636 20.8955 11C20.8955 13.5527 19.8815 16.0009 18.0764 17.8059C16.2714 19.6109 13.8232 20.625 11.2705 20.625ZM11.2705 2.75C9.63882 2.75 8.04376 3.23386 6.68706 4.14038C5.33035 5.0469 4.27293 6.33538 3.64851 7.84287C3.02408 9.35036 2.86071 11.0092 3.17903 12.6095C3.49736 14.2098 4.2831 15.6799 5.43688 16.8336C6.59066 17.9874 8.06067 18.7732 9.66102 19.0915C11.2614 19.4098 12.9202 19.2464 14.4277 18.622C15.9351 17.9976 17.2236 16.9402 18.1301 15.5835C19.0367 14.2268 19.5205 12.6317 19.5205 11C19.5205 8.81197 18.6513 6.71355 17.1041 5.16637C15.557 3.6192 13.4585 2.75 11.2705 2.75Z" fill="#FECB00"/>
<path d="M11.2705 20.625C11.0882 20.625 10.9133 20.5526 10.7844 20.4236C10.6554 20.2947 10.583 20.1198 10.583 19.9375V2.0625C10.583 1.88016 10.6554 1.7053 10.7844 1.57636C10.9133 1.44743 11.0882 1.375 11.2705 1.375C11.4528 1.375 11.6277 1.44743 11.7566 1.57636C11.8856 1.7053 11.958 1.88016 11.958 2.0625V19.9375C11.958 20.1198 11.8856 20.2947 11.7566 20.4236C11.6277 20.5526 11.4528 20.625 11.2705 20.625Z" fill="#FECB00"/>
<path d="M16.083 11.6875C15.9007 11.6875 15.7258 11.6151 15.5969 11.4861C15.4679 11.3572 15.3955 11.1823 15.3955 11C15.3955 6.53125 13.5049 2.75 11.2705 2.75C11.0882 2.75 10.9133 2.67757 10.7844 2.54864C10.6554 2.4197 10.583 2.24484 10.583 2.0625C10.583 1.88016 10.6554 1.7053 10.7844 1.57636C10.9133 1.44743 11.0882 1.375 11.2705 1.375C14.3574 1.375 16.7705 5.60313 16.7705 11C16.7705 11.1823 16.6981 11.3572 16.5691 11.4861C16.4402 11.6151 16.2653 11.6875 16.083 11.6875Z" fill="#FECB00"/>
<path d="M11.2705 20.625C11.0882 20.625 10.9133 20.5526 10.7844 20.4236C10.6554 20.2947 10.583 20.1198 10.583 19.9375C10.583 19.7552 10.6554 19.5803 10.7844 19.4514C10.9133 19.3224 11.0882 19.25 11.2705 19.25C13.5049 19.25 15.3955 15.4688 15.3955 11C15.3955 10.8177 15.4679 10.6428 15.5969 10.5139C15.7258 10.3849 15.9007 10.3125 16.083 10.3125C16.2653 10.3125 16.4402 10.3849 16.5691 10.5139C16.6981 10.6428 16.7705 10.8177 16.7705 11C16.7705 16.3969 14.3574 20.625 11.2705 20.625Z" fill="#FECB00"/>
<path d="M6.45801 11.6875C6.27567 11.6875 6.1008 11.6151 5.97187 11.4861C5.84294 11.3572 5.77051 11.1823 5.77051 11C5.77051 5.60313 8.18363 1.375 11.2705 1.375C11.4528 1.375 11.6277 1.44743 11.7566 1.57636C11.8856 1.7053 11.958 1.88016 11.958 2.0625C11.958 2.24484 11.8856 2.4197 11.7566 2.54864C11.6277 2.67757 11.4528 2.75 11.2705 2.75C9.03613 2.75 7.14551 6.53125 7.14551 11C7.14551 11.1823 7.07307 11.3572 6.94414 11.4861C6.81521 11.6151 6.64034 11.6875 6.45801 11.6875Z" fill="#FECB00"/>
<path d="M11.2705 20.625C8.18363 20.625 5.77051 16.3969 5.77051 11C5.77051 10.8177 5.84294 10.6428 5.97187 10.5139C6.1008 10.3849 6.27567 10.3125 6.45801 10.3125C6.64034 10.3125 6.81521 10.3849 6.94414 10.5139C7.07307 10.6428 7.14551 10.8177 7.14551 11C7.14551 15.4688 9.03613 19.25 11.2705 19.25C11.4528 19.25 11.6277 19.3224 11.7566 19.4514C11.8856 19.5803 11.958 19.7552 11.958 19.9375C11.958 20.1198 11.8856 20.2947 11.7566 20.4236C11.6277 20.5526 11.4528 20.625 11.2705 20.625Z" fill="#FECB00"/>
<path d="M20.208 11.6875H2.33301C2.15067 11.6875 1.9758 11.6151 1.84687 11.4861C1.71794 11.3572 1.64551 11.1823 1.64551 11C1.64551 10.8177 1.71794 10.6428 1.84687 10.5139C1.9758 10.3849 2.15067 10.3125 2.33301 10.3125H20.208C20.3903 10.3125 20.5652 10.3849 20.6941 10.5139C20.8231 10.6428 20.8955 10.8177 20.8955 11C20.8955 11.1823 20.8231 11.3572 20.6941 11.4861C20.5652 11.6151 20.3903 11.6875 20.208 11.6875Z" fill="#FECB00"/>
<path d="M18.833 7.5625H3.70801C3.52567 7.5625 3.3508 7.49007 3.22187 7.36114C3.09294 7.2322 3.02051 7.05734 3.02051 6.875C3.02051 6.69266 3.09294 6.5178 3.22187 6.38886C3.3508 6.25993 3.52567 6.1875 3.70801 6.1875H18.833C19.0153 6.1875 19.1902 6.25993 19.3191 6.38886C19.4481 6.5178 19.5205 6.69266 19.5205 6.875C19.5205 7.05734 19.4481 7.2322 19.3191 7.36114C19.1902 7.49007 19.0153 7.5625 18.833 7.5625Z" fill="#FECB00"/>
<path d="M18.833 15.8125H3.70801C3.52567 15.8125 3.3508 15.7401 3.22187 15.6111C3.09294 15.4822 3.02051 15.3073 3.02051 15.125C3.02051 14.9427 3.09294 14.7678 3.22187 14.6389C3.3508 14.5099 3.52567 14.4375 3.70801 14.4375H18.833C19.0153 14.4375 19.1902 14.5099 19.3191 14.6389C19.4481 14.7678 19.5205 14.9427 19.5205 15.125C19.5205 15.3073 19.4481 15.4822 19.3191 15.6111C19.1902 15.7401 19.0153 15.8125 18.833 15.8125Z" fill="#FECB00"/>
</svg>
