<svg width="22" height="23" viewBox="0 0 22 23" fill="none" xmlns="http://www.w3.org/2000/svg">
<g clip-path="url(#clip0_499_5326)">
<path d="M18.629 3.66448C16.6034 1.64645 13.9088 0.53434 11.0409 0.533203C8.17944 0.533203 5.4805 1.6443 3.44158 3.66187C1.39904 5.68277 0.273161 8.36856 0.270508 11.2146V11.2198C0.270845 12.9424 0.723404 14.6801 1.58245 16.2663L0.299988 22.0957L6.19649 20.7544C7.68986 21.5071 9.35619 21.9039 11.0368 21.9045H11.0411C13.9021 21.9045 16.601 20.7933 18.6402 18.7756C20.6846 16.753 21.811 14.0706 21.8123 11.2228C21.8131 8.39509 20.6828 5.71077 18.6291 3.66448H18.629ZM11.0409 20.2216H11.0371C9.52806 20.2209 8.03284 19.8421 6.71331 19.1257L6.43452 18.9743L2.5136 19.8661L3.36523 15.9955L3.20107 15.7124C2.38477 14.3047 1.95339 12.7508 1.95339 11.218C1.95651 6.25695 6.03271 2.21609 11.0405 2.21609C13.4598 2.2171 15.733 3.15498 17.4412 4.85665C19.1753 6.58464 20.13 8.84534 20.1291 11.2223C20.1272 16.1846 16.0501 20.2216 11.0409 20.2216Z" fill="#FECB00"/>
<path d="M8.11002 6.50781H7.63792C7.47355 6.50781 7.20672 6.56934 6.98103 6.81495C6.75512 7.06073 6.11865 7.65479 6.11865 8.86297C6.11865 10.0711 7.00158 11.2384 7.12464 11.4025C7.24786 11.5663 8.82896 14.1247 11.3331 15.109C13.4143 15.927 13.8379 15.7642 14.2895 15.7233C14.7412 15.6824 15.7472 15.1294 15.9525 14.5561C16.1578 13.9828 16.1578 13.4912 16.0963 13.3886C16.0346 13.2862 15.8703 13.2249 15.624 13.1022C15.3776 12.9793 14.1701 12.3752 13.9442 12.2931C13.7183 12.2113 13.5541 12.1704 13.3898 12.4163C13.2254 12.6618 12.7416 13.2297 12.5978 13.3935C12.4542 13.5575 12.3105 13.5781 12.064 13.4552C11.8176 13.332 11.0322 13.0681 10.091 12.2318C9.3585 11.5808 8.85018 10.7507 8.70636 10.5049C8.56275 10.2593 8.69108 10.1264 8.8146 10.0038C8.92536 9.89388 9.07486 9.74353 9.19809 9.60026C9.32115 9.45682 9.35619 9.35448 9.43844 9.19062C9.52056 9.02679 9.47941 8.88335 9.41788 8.76063C9.35619 8.6377 8.88341 7.4235 8.66425 6.93784H8.66442C8.47987 6.52891 8.28556 6.51501 8.11002 6.50781Z" fill="#FECB00"/>
</g>
<defs>
<clipPath id="clip0_499_5326">
<rect width="21.5625" height="21.5625" fill="white" transform="translate(0.270508 0.533203)"/>
</clipPath>
</defs>
</svg>
