<svg width="45" height="45" viewBox="0 0 45 45" fill="none" xmlns="http://www.w3.org/2000/svg">
<path d="M16.4409 13.0408L13.9144 22.0041C13.373 23.9635 15.6933 24.7283 16.2605 22.8893L18.5206 14.6221H19.1566L15.2722 29.1455H18.8988V40.0596C18.8988 42.0361 21.6488 42.0361 21.6488 40.0596V29.1455H22.5081V40.0596C22.5081 42.0361 25.1722 42.0361 25.1722 40.0596V29.1455H28.9019L24.9316 14.6221H25.6535L27.9136 22.8893C28.4722 24.7713 30.7753 23.9635 30.2597 22.0127L27.7331 13.0408C27.3894 12.0268 26.1691 10.2393 24.1238 10.1533H20.0589C17.9449 10.2393 16.7331 12.0096 16.4409 13.0408Z" fill="black"/>
<path d="M25.2237 6.21719C25.2237 4.44687 23.8144 3.01172 22.0784 3.01172C20.3425 3.01172 18.9331 4.44687 18.9331 6.21719C18.9331 7.9875 20.3425 9.42266 22.0784 9.42266C23.8144 9.42266 25.2237 7.9875 25.2237 6.21719Z" fill="black"/>
</svg>
